STARTFONT 2.1
FONT --Tms Rmn-Regular-R-Medium--18-140-96-96-P-101-IBM-UGL
SIZE 14 96 96
FONTBOUNDINGBOX 19 21 0 -5
METRICSSET 2
STARTPROPERTIES 27
FONT_ASCENT 14
FONT_DESCENT 4
PIXEL_SIZE 18
RESOLUTION_X 96
RESOLUTION_Y 96
POINT_SIZE 140
FACE_NAME "Tms Rmn"
FOUNDRY ""
FAMILY_NAME "Tms Rmn"
WEIGHT_NAME "Regular"
RELATIVE_WEIGHT 50
SLANT "R"
SPACING "P"
SETWIDTH_NAME "Medium"
RELATIVE_SETWIDTH 50
ADD_STYLE_NAME ""
AVERAGE_WIDTH 101
UNDERLINE_POSITION 2
SUPERSCRIPT_SIZE 13
SUBSCRIPT_SIZE 13
SUPERSCRIPT_X 0
SUPERSCRIPT_Y 7
SUBSCRIPT_X 0
SUBSCRIPT_Y 4
DEFAULT_CHAR 32
CHARSET_REGISTRY "IBM"
CHARSET_ENCODING "UGL"
ENDPROPERTIES
CHARS 382
STARTCHAR smileface
ENCODING 1
SWIDTH 750 0
DWIDTH 14 0
BBX 12 13 1 0
VVECTOR 7 16
SWIDTH1 0 -1125
DWIDTH1 0 -21
BITMAP 
0F00
30C0
4020
4020
9090
9090
8010
A050
9090
4F20
4020
30C0
0F00
ENDCHAR
STARTCHAR invsmileface
ENCODING 2
SWIDTH 750 0
DWIDTH 14 0
BBX 12 13 1 0
VVECTOR 7 16
SWIDTH1 0 -1125
DWIDTH1 0 -21
BITMAP 
0F00
3FC0
7FE0
7FE0
E670
E670
FFF0
DFB0
CF30
6060
70E0
3FC0
0F00
ENDCHAR
STARTCHAR heart
ENCODING 3
SWIDTH 696 0
DWIDTH 13 0
BBX 11 13 1 0
VVECTOR 7 16
SWIDTH1 0 -1125
DWIDTH1 0 -21
BITMAP 
71C0
FBE0
FBE0
FFE0
FFE0
7FC0
7FC0
3F80
1F00
0E00
0E00
0400
0400
ENDCHAR
STARTCHAR diamond
ENCODING 4
SWIDTH 696 0
DWIDTH 13 0
BBX 11 13 1 0
VVECTOR 7 16
SWIDTH1 0 -1125
DWIDTH1 0 -21
BITMAP 
0400
0E00
1F00
1F00
3F80
7FC0
FFE0
7FC0
3F80
1F00
1F00
0E00
0400
ENDCHAR
STARTCHAR club
ENCODING 5
SWIDTH 696 0
DWIDTH 13 0
BBX 13 13 0 0
VVECTOR 7 16
SWIDTH1 0 -1125
DWIDTH1 0 -21
BITMAP 
0700
0F80
0F80
0F80
0F80
7770
FFF8
FFF8
FFF8
7AF0
0200
0700
1FC0
ENDCHAR
STARTCHAR spade
ENCODING 6
SWIDTH 696 0
DWIDTH 13 0
BBX 11 13 1 0
VVECTOR 7 16
SWIDTH1 0 -1125
DWIDTH1 0 -21
BITMAP 
0400
0400
0E00
1F00
3F80
7FC0
FFE0
FFE0
FFE0
75C0
0400
0E00
3F80
ENDCHAR
STARTCHAR bullet
ENCODING 7
SWIDTH 696 0
DWIDTH 13 0
BBX 5 5 4 4
VVECTOR 7 16
SWIDTH1 0 -1125
DWIDTH1 0 -21
BITMAP 
70
F8
F8
F8
70
ENDCHAR
STARTCHAR invbullet
ENCODING 8
SWIDTH 696 0
DWIDTH 13 0
BBX 13 13 0 0
VVECTOR 7 16
SWIDTH1 0 -1125
DWIDTH1 0 -21
BITMAP 
FFF8
FFF8
FFF8
FFF8
F8F8
F078
F078
F078
F8F8
FFF8
FFF8
FFF8
FFF8
ENDCHAR
STARTCHAR circle
ENCODING 9
SWIDTH 696 0
DWIDTH 13 0
BBX 9 9 2 2
VVECTOR 7 16
SWIDTH1 0 -1125
DWIDTH1 0 -21
BITMAP 
1C00
6300
4100
8080
8080
8080
4100
6300
1C00
ENDCHAR
STARTCHAR invcircle
ENCODING 10
SWIDTH 696 0
DWIDTH 13 0
BBX 13 13 0 0
VVECTOR 7 16
SWIDTH1 0 -1125
DWIDTH1 0 -21
BITMAP 
FFF8
FFF8
F8F8
E738
EFB8
DFD8
DFD8
DFD8
EFB8
E738
F8F8
FFF8
FFF8
ENDCHAR
STARTCHAR male
ENCODING 11
SWIDTH 589 0
DWIDTH 11 0
BBX 9 9 1 3
VVECTOR 6 16
SWIDTH1 0 -1125
DWIDTH1 0 -21
BITMAP 
0780
0180
0280
7C80
CC00
8400
8400
CC00
7800
ENDCHAR
STARTCHAR female
ENCODING 12
SWIDTH 589 0
DWIDTH 11 0
BBX 7 12 2 1
VVECTOR 6 16
SWIDTH1 0 -1125
DWIDTH1 0 -21
BITMAP 
38
44
82
82
82
44
38
10
10
7C
10
10
ENDCHAR
STARTCHAR musicalnote
ENCODING 13
SWIDTH 482 0
DWIDTH 9 0
BBX 7 13 1 0
VVECTOR 5 16
SWIDTH1 0 -1125
DWIDTH1 0 -21
BITMAP 
10
10
18
18
14
14
12
12
12
12
74
F0
E0
ENDCHAR
STARTCHAR musicalnotedbl
ENCODING 14
SWIDTH 696 0
DWIDTH 13 0
BBX 11 13 0 0
VVECTOR 5 16
SWIDTH1 0 -1125
DWIDTH1 0 -21
BITMAP 
00E0
07A0
1C20
10E0
17A0
1C20
1020
1020
1020
10E0
71E0
F1C0
E000
ENDCHAR
STARTCHAR sun
ENCODING 15
SWIDTH 643 0
DWIDTH 12 0
BBX 10 10 1 2
VVECTOR 6 16
SWIDTH1 0 -1125
DWIDTH1 0 -21
BITMAP 
0C00
4C80
3F00
3300
E1C0
E1C0
3300
3F00
4C80
0C00
ENDCHAR
STARTCHAR triagrt
ENCODING 16
SWIDTH 696 0
DWIDTH 13 0
BBX 8 9 3 2
VVECTOR 8 16
SWIDTH1 0 -1125
DWIDTH1 0 -21
BITMAP 
80
E0
F8
FE
FF
FE
F8
E0
80
ENDCHAR
STARTCHAR triaglf
ENCODING 17
SWIDTH 696 0
DWIDTH 13 0
BBX 8 9 2 2
VVECTOR 6 16
SWIDTH1 0 -1125
DWIDTH1 0 -21
BITMAP 
01
07
1F
7F
FF
7F
1F
07
01
ENDCHAR
STARTCHAR arrowupdn
ENCODING 18
SWIDTH 429 0
DWIDTH 8 0
BBX 5 13 1 0
VVECTOR 3 16
SWIDTH1 0 -1125
DWIDTH1 0 -21
BITMAP 
20
70
A8
20
20
20
20
20
20
20
A8
70
20
ENDCHAR
STARTCHAR exclamdbl
ENCODING 19
SWIDTH 589 0
DWIDTH 11 0
BBX 7 13 2 0
VVECTOR 6 16
SWIDTH1 0 -1125
DWIDTH1 0 -21
BITMAP 
C6
C6
C6
C6
C6
C6
C6
C6
C6
00
00
C6
C6
ENDCHAR
STARTCHAR char14
ENCODING 20
SWIDTH 482 0
DWIDTH 9 0
BBX 8 16 1 -3
VVECTOR 6 16
SWIDTH1 0 -1125
DWIDTH1 0 -21
BITMAP 
3F
72
F2
F2
F2
F2
72
12
12
12
12
12
12
12
12
12
ENDCHAR
STARTCHAR char15
ENCODING 21
SWIDTH 482 0
DWIDTH 9 0
BBX 7 16 1 -2
VVECTOR 5 16
SWIDTH1 0 -1125
DWIDTH1 0 -21
BITMAP 
3C
66
66
60
30
78
CC
CE
E6
66
3C
18
0C
CC
CC
78
ENDCHAR
STARTCHAR filledrect
ENCODING 22
SWIDTH 696 0
DWIDTH 13 0
BBX 11 5 1 4
VVECTOR 7 16
SWIDTH1 0 -1125
DWIDTH1 0 -21
BITMAP 
FFE0
FFE0
FFE0
FFE0
FFE0
ENDCHAR
STARTCHAR arrowupdnbse
ENCODING 23
SWIDTH 429 0
DWIDTH 8 0
BBX 5 15 1 -2
VVECTOR 3 16
SWIDTH1 0 -1125
DWIDTH1 0 -21
BITMAP 
20
70
A8
20
20
20
20
20
20
20
A8
70
20
00
F8
ENDCHAR
STARTCHAR arrowup
ENCODING 24
SWIDTH 429 0
DWIDTH 8 0
BBX 5 13 1 0
VVECTOR 3 16
SWIDTH1 0 -1125
DWIDTH1 0 -21
BITMAP 
20
70
A8
20
20
20
20
20
20
20
20
20
20
ENDCHAR
STARTCHAR arrowdown
ENCODING 25
SWIDTH 429 0
DWIDTH 8 0
BBX 5 13 1 0
VVECTOR 3 16
SWIDTH1 0 -1125
DWIDTH1 0 -21
BITMAP 
20
20
20
20
20
20
20
20
20
20
A8
70
20
ENDCHAR
STARTCHAR arrowright
ENCODING 26
SWIDTH 804 0
DWIDTH 15 0
BBX 13 5 1 3
VVECTOR 8 16
SWIDTH1 0 -1125
DWIDTH1 0 -21
BITMAP 
0020
0010
FFF8
0010
0020
ENDCHAR
STARTCHAR arrowleft
ENCODING 27
SWIDTH 804 0
DWIDTH 15 0
BBX 13 5 1 3
VVECTOR 8 16
SWIDTH1 0 -1125
DWIDTH1 0 -21
BITMAP 
2000
4000
FFF8
4000
2000
ENDCHAR
STARTCHAR orthogonal
ENCODING 28
SWIDTH 589 0
DWIDTH 11 0
BBX 9 7 1 0
VVECTOR 6 16
SWIDTH1 0 -1125
DWIDTH1 0 -21
BITMAP 
C000
C000
C000
C000
C000
FF80
FF80
ENDCHAR
STARTCHAR arrowboth
ENCODING 29
SWIDTH 750 0
DWIDTH 14 0
BBX 12 5 1 3
VVECTOR 7 16
SWIDTH1 0 -1125
DWIDTH1 0 -21
BITMAP 
2040
4020
FFF0
4020
2040
ENDCHAR
STARTCHAR triagup
ENCODING 30
SWIDTH 696 0
DWIDTH 13 0
BBX 8 7 2 2
VVECTOR 6 16
SWIDTH1 0 -1125
DWIDTH1 0 -21
BITMAP 
18
18
3C
3C
7E
7E
FF
ENDCHAR
STARTCHAR triagdn
ENCODING 31
SWIDTH 696 0
DWIDTH 13 0
BBX 8 7 2 3
VVECTOR 6 16
SWIDTH1 0 -1125
DWIDTH1 0 -21
BITMAP 
FF
7E
7E
3C
3C
18
18
ENDCHAR
STARTCHAR space
ENCODING 32
SWIDTH 214 0
DWIDTH 4 0
BBX 0 0 4 16
VVECTOR 6 16
SWIDTH1 0 -1125
DWIDTH1 0 -21
BITMAP 
ENDCHAR
STARTCHAR exclam
ENCODING 33
SWIDTH 214 0
DWIDTH 4 0
BBX 2 13 1 0
VVECTOR 2 16
SWIDTH1 0 -1125
DWIDTH1 0 -21
BITMAP 
C0
C0
C0
C0
C0
C0
C0
C0
C0
00
00
C0
C0
ENDCHAR
STARTCHAR quotedbl
ENCODING 34
SWIDTH 429 0
DWIDTH 8 0
BBX 6 4 1 9
VVECTOR 4 16
SWIDTH1 0 -1125
DWIDTH1 0 -21
BITMAP 
CC
CC
CC
CC
ENDCHAR
STARTCHAR numbersign
ENCODING 35
SWIDTH 482 0
DWIDTH 9 0
BBX 9 14 0 0
VVECTOR 5 16
SWIDTH1 0 -1125
DWIDTH1 0 -21
BITMAP 
1B00
1B00
1B00
1B00
7F80
3600
3600
3600
3600
FF00
6C00
6C00
6C00
6C00
ENDCHAR
STARTCHAR dollar
ENCODING 36
SWIDTH 482 0
DWIDTH 9 0
BBX 7 17 1 -2
VVECTOR 5 16
SWIDTH1 0 -1125
DWIDTH1 0 -21
BITMAP 
10
10
3C
56
D2
D2
F0
78
3C
1C
16
96
96
D4
78
10
10
ENDCHAR
STARTCHAR percent
ENCODING 37
SWIDTH 804 0
DWIDTH 15 0
BBX 13 13 1 0
VVECTOR 8 16
SWIDTH1 0 -1125
DWIDTH1 0 -21
BITMAP 
3830
6FE0
C4C0
C4C0
C980
7300
0300
0670
0CC8
0D88
1988
3190
30E0
ENDCHAR
STARTCHAR ampersand
ENCODING 38
SWIDTH 750 0
DWIDTH 14 0
BBX 13 13 1 0
VVECTOR 8 16
SWIDTH1 0 -1125
DWIDTH1 0 -21
BITMAP 
1E00
3300
3100
3300
1E00
1C70
3C20
6620
C340
C180
C180
63C8
3E70
ENDCHAR
STARTCHAR quotesingle
ENCODING 39
SWIDTH 214 0
DWIDTH 4 0
BBX 2 4 1 9
VVECTOR 2 16
SWIDTH1 0 -1125
DWIDTH1 0 -21
BITMAP 
C0
C0
C0
C0
ENDCHAR
STARTCHAR parenleft
ENCODING 40
SWIDTH 321 0
DWIDTH 6 0
BBX 4 19 1 -4
VVECTOR 3 16
SWIDTH1 0 -1125
DWIDTH1 0 -21
BITMAP 
10
30
20
60
60
40
C0
C0
C0
C0
C0
C0
C0
40
60
60
20
30
10
ENDCHAR
STARTCHAR parenright
ENCODING 41
SWIDTH 321 0
DWIDTH 6 0
BBX 4 19 1 -4
VVECTOR 3 16
SWIDTH1 0 -1125
DWIDTH1 0 -21
BITMAP 
80
C0
40
60
60
20
30
30
30
30
30
30
30
20
60
60
40
C0
80
ENDCHAR
STARTCHAR asterisk
ENCODING 42
SWIDTH 482 0
DWIDTH 9 0
BBX 5 7 2 7
VVECTOR 5 16
SWIDTH1 0 -1125
DWIDTH1 0 -21
BITMAP 
20
A8
F8
70
F8
A8
20
ENDCHAR
STARTCHAR plus
ENCODING 43
SWIDTH 536 0
DWIDTH 10 0
BBX 8 8 1 3
VVECTOR 5 16
SWIDTH1 0 -1125
DWIDTH1 0 -21
BITMAP 
18
18
18
FF
FF
18
18
18
ENDCHAR
STARTCHAR comma
ENCODING 44
SWIDTH 214 0
DWIDTH 4 0
BBX 2 5 1 -3
VVECTOR 2 16
SWIDTH1 0 -1125
DWIDTH1 0 -21
BITMAP 
C0
C0
40
40
80
ENDCHAR
STARTCHAR hyphen
ENCODING 45
SWIDTH 321 0
DWIDTH 6 0
BBX 4 2 1 6
VVECTOR 3 16
SWIDTH1 0 -1125
DWIDTH1 0 -21
BITMAP 
F0
F0
ENDCHAR
STARTCHAR period
ENCODING 46
SWIDTH 214 0
DWIDTH 4 0
BBX 2 2 1 0
VVECTOR 2 16
SWIDTH1 0 -1125
DWIDTH1 0 -21
BITMAP 
C0
C0
ENDCHAR
STARTCHAR slash
ENCODING 47
SWIDTH 268 0
DWIDTH 5 0
BBX 5 16 0 -2
VVECTOR 3 16
SWIDTH1 0 -1125
DWIDTH1 0 -21
BITMAP 
18
18
18
18
30
30
30
30
60
60
60
60
C0
C0
C0
C0
ENDCHAR
STARTCHAR zero
ENCODING 48
SWIDTH 482 0
DWIDTH 9 0
BBX 7 13 1 0
VVECTOR 5 16
SWIDTH1 0 -1125
DWIDTH1 0 -21
BITMAP 
38
6C
C6
C6
C6
C6
C6
C6
C6
C6
C6
6C
38
ENDCHAR
STARTCHAR one
ENCODING 49
SWIDTH 482 0
DWIDTH 9 0
BBX 6 13 2 0
VVECTOR 6 16
SWIDTH1 0 -1125
DWIDTH1 0 -21
BITMAP 
10
30
F0
30
30
30
30
30
30
30
30
30
FC
ENDCHAR
STARTCHAR two
ENCODING 50
SWIDTH 482 0
DWIDTH 9 0
BBX 7 13 1 0
VVECTOR 5 16
SWIDTH1 0 -1125
DWIDTH1 0 -21
BITMAP 
38
7C
8E
06
06
0C
08
18
30
20
42
FE
FC
ENDCHAR
STARTCHAR three
ENCODING 51
SWIDTH 482 0
DWIDTH 9 0
BBX 7 13 1 0
VVECTOR 5 16
SWIDTH1 0 -1125
DWIDTH1 0 -21
BITMAP 
38
4C
86
06
04
08
3C
0E
06
06
06
CC
78
ENDCHAR
STARTCHAR four
ENCODING 52
SWIDTH 482 0
DWIDTH 9 0
BBX 7 13 1 0
VVECTOR 5 16
SWIDTH1 0 -1125
DWIDTH1 0 -21
BITMAP 
0C
0C
1C
1C
2C
2C
4C
4C
FE
FE
0C
0C
0C
ENDCHAR
STARTCHAR five
ENCODING 53
SWIDTH 482 0
DWIDTH 9 0
BBX 7 13 1 0
VVECTOR 5 16
SWIDTH1 0 -1125
DWIDTH1 0 -21
BITMAP 
3E
3E
40
40
F8
FC
0E
06
06
06
06
CC
78
ENDCHAR
STARTCHAR six
ENCODING 54
SWIDTH 482 0
DWIDTH 9 0
BBX 7 13 1 0
VVECTOR 5 16
SWIDTH1 0 -1125
DWIDTH1 0 -21
BITMAP 
1C
30
60
60
C0
D8
EC
C6
C6
C6
C6
6C
38
ENDCHAR
STARTCHAR seven
ENCODING 55
SWIDTH 482 0
DWIDTH 9 0
BBX 7 13 1 0
VVECTOR 5 16
SWIDTH1 0 -1125
DWIDTH1 0 -21
BITMAP 
7E
7E
8C
0C
18
18
18
30
30
30
60
60
60
ENDCHAR
STARTCHAR eight
ENCODING 56
SWIDTH 482 0
DWIDTH 9 0
BBX 7 13 1 0
VVECTOR 5 16
SWIDTH1 0 -1125
DWIDTH1 0 -21
BITMAP 
38
6C
C6
C6
E4
78
3C
4E
C6
C6
C6
6C
38
ENDCHAR
STARTCHAR nine
ENCODING 57
SWIDTH 482 0
DWIDTH 9 0
BBX 7 13 1 0
VVECTOR 5 16
SWIDTH1 0 -1125
DWIDTH1 0 -21
BITMAP 
38
6C
C6
C6
C6
C6
6E
36
06
04
0C
18
70
ENDCHAR
STARTCHAR colon
ENCODING 58
SWIDTH 268 0
DWIDTH 5 0
BBX 2 9 1 0
VVECTOR 2 16
SWIDTH1 0 -1125
DWIDTH1 0 -21
BITMAP 
C0
C0
00
00
00
00
00
C0
C0
ENDCHAR
STARTCHAR semicolon
ENCODING 59
SWIDTH 268 0
DWIDTH 5 0
BBX 2 12 1 -3
VVECTOR 2 16
SWIDTH1 0 -1125
DWIDTH1 0 -21
BITMAP 
C0
C0
00
00
00
00
00
C0
C0
40
40
80
ENDCHAR
STARTCHAR less
ENCODING 60
SWIDTH 536 0
DWIDTH 10 0
BBX 8 9 1 2
VVECTOR 5 16
SWIDTH1 0 -1125
DWIDTH1 0 -21
BITMAP 
03
0E
1C
70
E0
70
1C
0E
03
ENDCHAR
STARTCHAR equal
ENCODING 61
SWIDTH 536 0
DWIDTH 10 0
BBX 8 6 1 3
VVECTOR 5 16
SWIDTH1 0 -1125
DWIDTH1 0 -21
BITMAP 
FF
FF
00
00
FF
FF
ENDCHAR
STARTCHAR greater
ENCODING 62
SWIDTH 536 0
DWIDTH 10 0
BBX 8 9 1 2
VVECTOR 5 16
SWIDTH1 0 -1125
DWIDTH1 0 -21
BITMAP 
C0
70
38
0E
07
0E
38
70
C0
ENDCHAR
STARTCHAR question
ENCODING 63
SWIDTH 429 0
DWIDTH 8 0
BBX 6 13 1 0
VVECTOR 4 16
SWIDTH1 0 -1125
DWIDTH1 0 -21
BITMAP 
78
8C
CC
CC
0C
18
18
30
20
20
00
30
30
ENDCHAR
STARTCHAR at
ENCODING 64
SWIDTH 911 0
DWIDTH 17 0
BBX 15 15 1 -2
VVECTOR 9 16
SWIDTH1 0 -1125
DWIDTH1 0 -21
BITMAP 
07C0
1C70
3018
600C
636C
C6E6
CC66
CC46
CCC6
C6EC
6338
6000
3000
1C30
07C0
ENDCHAR
STARTCHAR A
ENCODING 65
SWIDTH 643 0
DWIDTH 12 0
BBX 12 13 0 0
VVECTOR 6 16
SWIDTH1 0 -1125
DWIDTH1 0 -21
BITMAP 
0400
0600
0E00
0B00
0B00
1300
1180
2180
3FC0
20C0
40C0
4060
E0F0
ENDCHAR
STARTCHAR B
ENCODING 66
SWIDTH 696 0
DWIDTH 13 0
BBX 11 13 1 0
VVECTOR 7 16
SWIDTH1 0 -1125
DWIDTH1 0 -21
BITMAP 
FE00
6180
60C0
60C0
60C0
6180
7F80
60C0
6060
6060
6060
60C0
FF00
ENDCHAR
STARTCHAR C
ENCODING 67
SWIDTH 696 0
DWIDTH 13 0
BBX 11 13 1 0
VVECTOR 7 16
SWIDTH1 0 -1125
DWIDTH1 0 -21
BITMAP 
0F40
38C0
6040
6000
C000
C000
C000
C000
C000
6000
6020
38C0
0F00
ENDCHAR
STARTCHAR D
ENCODING 68
SWIDTH 750 0
DWIDTH 14 0
BBX 12 13 1 0
VVECTOR 7 16
SWIDTH1 0 -1125
DWIDTH1 0 -21
BITMAP 
FF00
60C0
6060
6060
6030
6030
6030
6030
6030
6060
6060
60C0
FF00
ENDCHAR
STARTCHAR E
ENCODING 69
SWIDTH 643 0
DWIDTH 12 0
BBX 10 13 1 0
VVECTOR 6 16
SWIDTH1 0 -1125
DWIDTH1 0 -21
BITMAP 
FF80
6080
6000
6000
6000
6100
7F00
6100
6000
6000
6000
6040
FF80
ENDCHAR
STARTCHAR F
ENCODING 70
SWIDTH 589 0
DWIDTH 11 0
BBX 9 13 1 0
VVECTOR 6 16
SWIDTH1 0 -1125
DWIDTH1 0 -21
BITMAP 
FF80
6080
6000
6000
6000
6100
7F00
6100
6000
6000
6000
6000
F000
ENDCHAR
STARTCHAR G
ENCODING 71
SWIDTH 750 0
DWIDTH 14 0
BBX 12 13 1 0
VVECTOR 7 16
SWIDTH1 0 -1125
DWIDTH1 0 -21
BITMAP 
0F40
38C0
6040
6000
C000
C000
C000
C0F0
C060
6060
6060
38E0
0F80
ENDCHAR
STARTCHAR H
ENCODING 72
SWIDTH 750 0
DWIDTH 14 0
BBX 12 13 1 0
VVECTOR 7 16
SWIDTH1 0 -1125
DWIDTH1 0 -21
BITMAP 
F0F0
6060
6060
6060
6060
6060
7FE0
6060
6060
6060
6060
6060
F0F0
ENDCHAR
STARTCHAR I
ENCODING 73
SWIDTH 321 0
DWIDTH 6 0
BBX 4 13 1 0
VVECTOR 3 16
SWIDTH1 0 -1125
DWIDTH1 0 -21
BITMAP 
F0
60
60
60
60
60
60
60
60
60
60
60
F0
ENDCHAR
STARTCHAR J
ENCODING 74
SWIDTH 375 0
DWIDTH 7 0
BBX 6 13 0 0
VVECTOR 3 16
SWIDTH1 0 -1125
DWIDTH1 0 -21
BITMAP 
3C
18
18
18
18
18
18
18
18
18
D8
D8
70
ENDCHAR
STARTCHAR K
ENCODING 75
SWIDTH 696 0
DWIDTH 13 0
BBX 12 13 1 0
VVECTOR 8 16
SWIDTH1 0 -1125
DWIDTH1 0 -21
BITMAP 
F3E0
6180
6300
6600
6C00
7C00
7600
6700
6300
6180
61C0
60C0
F3F0
ENDCHAR
STARTCHAR L
ENCODING 76
SWIDTH 643 0
DWIDTH 12 0
BBX 10 13 1 0
VVECTOR 6 16
SWIDTH1 0 -1125
DWIDTH1 0 -21
BITMAP 
F000
6000
6000
6000
6000
6000
6000
6000
6000
6000
6000
6040
FF80
ENDCHAR
STARTCHAR M
ENCODING 77
SWIDTH 857 0
DWIDTH 16 0
BBX 14 13 1 0
VVECTOR 8 16
SWIDTH1 0 -1125
DWIDTH1 0 -21
BITMAP 
F03C
7038
7878
5858
5858
4C98
4C98
4C98
4718
4718
4718
4218
E23C
ENDCHAR
STARTCHAR N
ENCODING 78
SWIDTH 750 0
DWIDTH 14 0
BBX 12 13 1 0
VVECTOR 7 16
SWIDTH1 0 -1125
DWIDTH1 0 -21
BITMAP 
F070
7020
7820
5C20
4E20
4620
4720
43A0
41E0
40E0
40E0
4060
E020
ENDCHAR
STARTCHAR O
ENCODING 79
SWIDTH 750 0
DWIDTH 14 0
BBX 12 13 1 0
VVECTOR 7 16
SWIDTH1 0 -1125
DWIDTH1 0 -21
BITMAP 
0F00
30C0
6060
6060
C030
C030
C030
C030
C030
6060
6060
30C0
0F00
ENDCHAR
STARTCHAR P
ENCODING 80
SWIDTH 589 0
DWIDTH 11 0
BBX 10 13 1 0
VVECTOR 7 16
SWIDTH1 0 -1125
DWIDTH1 0 -21
BITMAP 
FE00
6180
60C0
60C0
60C0
6180
7E00
6000
6000
6000
6000
6000
F000
ENDCHAR
STARTCHAR Q
ENCODING 81
SWIDTH 750 0
DWIDTH 14 0
BBX 12 16 1 -3
VVECTOR 7 16
SWIDTH1 0 -1125
DWIDTH1 0 -21
BITMAP 
0F00
30C0
6060
6060
C030
C030
C030
C030
C030
6060
6060
30C0
0F00
0700
0180
0060
ENDCHAR
STARTCHAR R
ENCODING 82
SWIDTH 643 0
DWIDTH 12 0
BBX 11 13 1 0
VVECTOR 7 16
SWIDTH1 0 -1125
DWIDTH1 0 -21
BITMAP 
FF00
6180
60C0
60C0
60C0
6180
7F00
6300
6180
6180
60C0
60C0
F060
ENDCHAR
STARTCHAR S
ENCODING 83
SWIDTH 536 0
DWIDTH 10 0
BBX 8 13 1 0
VVECTOR 5 16
SWIDTH1 0 -1125
DWIDTH1 0 -21
BITMAP 
3A
66
C2
C2
E0
70
3C
0E
07
83
83
C6
BC
ENDCHAR
STARTCHAR T
ENCODING 84
SWIDTH 643 0
DWIDTH 12 0
BBX 10 13 1 0
VVECTOR 6 16
SWIDTH1 0 -1125
DWIDTH1 0 -21
BITMAP 
FFC0
8C40
0C00
0C00
0C00
0C00
0C00
0C00
0C00
0C00
0C00
0C00
1E00
ENDCHAR
STARTCHAR U
ENCODING 85
SWIDTH 750 0
DWIDTH 14 0
BBX 12 13 1 0
VVECTOR 7 16
SWIDTH1 0 -1125
DWIDTH1 0 -21
BITMAP 
F070
6020
6020
6020
6020
6020
6020
6020
6020
6020
3040
38C0
0F00
ENDCHAR
STARTCHAR V
ENCODING 86
SWIDTH 643 0
DWIDTH 12 0
BBX 12 13 0 0
VVECTOR 6 16
SWIDTH1 0 -1125
DWIDTH1 0 -21
BITMAP 
F0F0
6060
6040
3040
3080
3080
1900
1900
0E00
0E00
0E00
0400
0400
ENDCHAR
STARTCHAR W
ENCODING 87
SWIDTH 911 0
DWIDTH 17 0
BBX 17 13 0 0
VVECTOR 9 16
SWIDTH1 0 -1125
DWIDTH1 0 -21
BITMAP 
F3C380
618100
618100
30C200
30C200
30C200
196400
196400
0E3800
0E3800
0E3800
041000
041000
ENDCHAR
STARTCHAR X
ENCODING 88
SWIDTH 643 0
DWIDTH 12 0
BBX 12 13 0 0
VVECTOR 6 16
SWIDTH1 0 -1125
DWIDTH1 0 -21
BITMAP 
F8F0
3060
1840
1C80
0D00
0700
0700
0B00
0980
11C0
20C0
6060
F0F0
ENDCHAR
STARTCHAR Y
ENCODING 89
SWIDTH 643 0
DWIDTH 12 0
BBX 12 13 0 0
VVECTOR 6 16
SWIDTH1 0 -1125
DWIDTH1 0 -21
BITMAP 
F070
6020
3040
3040
1880
0D00
0D00
0600
0600
0600
0600
0600
0F00
ENDCHAR
STARTCHAR Z
ENCODING 90
SWIDTH 643 0
DWIDTH 12 0
BBX 11 13 1 0
VVECTOR 7 16
SWIDTH1 0 -1125
DWIDTH1 0 -21
BITMAP 
7FC0
4180
0180
0300
0700
0600
0C00
1C00
1800
3000
7000
6020
FFC0
ENDCHAR
STARTCHAR bracketleft
ENCODING 91
SWIDTH 321 0
DWIDTH 6 0
BBX 4 17 2 -3
VVECTOR 5 16
SWIDTH1 0 -1125
DWIDTH1 0 -21
BITMAP 
F0
C0
C0
C0
C0
C0
C0
C0
C0
C0
C0
C0
C0
C0
C0
C0
F0
ENDCHAR
STARTCHAR backslash
ENCODING 92
SWIDTH 268 0
DWIDTH 5 0
BBX 5 13 0 0
VVECTOR 3 16
SWIDTH1 0 -1125
DWIDTH1 0 -21
BITMAP 
C0
C0
C0
60
60
60
30
30
30
18
18
18
18
ENDCHAR
STARTCHAR bracketright
ENCODING 93
SWIDTH 321 0
DWIDTH 6 0
BBX 4 17 0 -3
VVECTOR 1 16
SWIDTH1 0 -1125
DWIDTH1 0 -21
BITMAP 
F0
30
30
30
30
30
30
30
30
30
30
30
30
30
30
30
F0
ENDCHAR
STARTCHAR asciicircum
ENCODING 94
SWIDTH 321 0
DWIDTH 6 0
BBX 6 3 0 13
VVECTOR 3 16
SWIDTH1 0 -1125
DWIDTH1 0 -21
BITMAP 
30
78
CC
ENDCHAR
STARTCHAR underscore
ENCODING 95
SWIDTH 482 0
DWIDTH 9 0
BBX 9 1 0 -2
VVECTOR 5 16
SWIDTH1 0 -1125
DWIDTH1 0 -21
BITMAP 
FF80
ENDCHAR
STARTCHAR grave
ENCODING 96
SWIDTH 321 0
DWIDTH 6 0
BBX 4 3 1 11
VVECTOR 3 16
SWIDTH1 0 -1125
DWIDTH1 0 -21
BITMAP 
C0
60
10
ENDCHAR
STARTCHAR a
ENCODING 97
SWIDTH 482 0
DWIDTH 9 0
BBX 8 9 1 0
VVECTOR 6 16
SWIDTH1 0 -1125
DWIDTH1 0 -21
BITMAP 
3C
C6
C6
1E
66
C6
C6
DE
77
ENDCHAR
STARTCHAR b
ENCODING 98
SWIDTH 536 0
DWIDTH 10 0
BBX 9 14 0 0
VVECTOR 4 16
SWIDTH1 0 -1125
DWIDTH1 0 -21
BITMAP 
2000
E000
6000
6000
6000
6E00
7300
6180
6180
6180
6180
6180
7300
1E00
ENDCHAR
STARTCHAR c
ENCODING 99
SWIDTH 482 0
DWIDTH 9 0
BBX 7 9 1 0
VVECTOR 5 16
SWIDTH1 0 -1125
DWIDTH1 0 -21
BITMAP 
3C
66
C6
C0
C0
C0
C2
66
3C
ENDCHAR
STARTCHAR d
ENCODING 100
SWIDTH 536 0
DWIDTH 10 0
BBX 9 14 1 0
VVECTOR 6 16
SWIDTH1 0 -1125
DWIDTH1 0 -21
BITMAP 
0100
0700
0300
0300
0300
3B00
6700
C300
C300
C300
C300
C300
6700
3D80
ENDCHAR
STARTCHAR e
ENCODING 101
SWIDTH 482 0
DWIDTH 9 0
BBX 7 9 1 0
VVECTOR 5 16
SWIDTH1 0 -1125
DWIDTH1 0 -21
BITMAP 
38
6C
C6
FE
C0
C0
C2
66
3C
ENDCHAR
STARTCHAR f
ENCODING 102
SWIDTH 268 0
DWIDTH 5 0
BBX 5 14 0 0
VVECTOR 3 16
SWIDTH1 0 -1125
DWIDTH1 0 -21
BITMAP 
38
68
60
60
F8
60
60
60
60
60
60
60
60
F0
ENDCHAR
STARTCHAR g
ENCODING 103
SWIDTH 536 0
DWIDTH 10 0
BBX 9 13 1 -4
VVECTOR 6 16
SWIDTH1 0 -1125
DWIDTH1 0 -21
BITMAP 
1C00
3780
6300
6300
3600
1C00
3000
6000
7F00
C380
C180
C300
7E00
ENDCHAR
STARTCHAR h
ENCODING 104
SWIDTH 482 0
DWIDTH 9 0
BBX 9 14 0 0
VVECTOR 5 16
SWIDTH1 0 -1125
DWIDTH1 0 -21
BITMAP 
2000
E000
6000
6000
6000
6E00
7300
6300
6300
6300
6300
6300
6300
F380
ENDCHAR
STARTCHAR i
ENCODING 105
SWIDTH 268 0
DWIDTH 5 0
BBX 4 14 1 0
VVECTOR 4 16
SWIDTH1 0 -1125
DWIDTH1 0 -21
BITMAP 
60
60
00
00
00
60
E0
60
60
60
60
60
60
F0
ENDCHAR
STARTCHAR j
ENCODING 106
SWIDTH 268 0
DWIDTH 5 0
BBX 4 18 0 -4
VVECTOR 2 16
SWIDTH1 0 -1125
DWIDTH1 0 -21
BITMAP 
30
30
00
00
00
30
70
30
30
30
30
30
30
30
30
30
B0
60
ENDCHAR
STARTCHAR k
ENCODING 107
SWIDTH 482 0
DWIDTH 9 0
BBX 8 14 1 0
VVECTOR 6 16
SWIDTH1 0 -1125
DWIDTH1 0 -21
BITMAP 
20
E0
60
60
60
6F
64
68
70
78
6C
6C
66
F7
ENDCHAR
STARTCHAR l
ENCODING 108
SWIDTH 268 0
DWIDTH 5 0
BBX 4 14 1 0
VVECTOR 4 16
SWIDTH1 0 -1125
DWIDTH1 0 -21
BITMAP 
20
E0
60
60
60
60
60
60
60
60
60
60
60
F0
ENDCHAR
STARTCHAR m
ENCODING 109
SWIDTH 696 0
DWIDTH 13 0
BBX 12 9 1 0
VVECTOR 8 16
SWIDTH1 0 -1125
DWIDTH1 0 -21
BITMAP 
2CC0
FFE0
6660
6660
6660
6660
6660
6660
F770
ENDCHAR
STARTCHAR n
ENCODING 110
SWIDTH 482 0
DWIDTH 9 0
BBX 9 9 0 0
VVECTOR 5 16
SWIDTH1 0 -1125
DWIDTH1 0 -21
BITMAP 
6E00
F300
6300
6300
6300
6300
6300
6300
F380
ENDCHAR
STARTCHAR o
ENCODING 111
SWIDTH 536 0
DWIDTH 10 0
BBX 8 9 1 0
VVECTOR 5 16
SWIDTH1 0 -1125
DWIDTH1 0 -21
BITMAP 
3C
46
C3
C3
C3
C3
C3
62
3C
ENDCHAR
STARTCHAR p
ENCODING 112
SWIDTH 536 0
DWIDTH 10 0
BBX 9 13 0 -4
VVECTOR 4 16
SWIDTH1 0 -1125
DWIDTH1 0 -21
BITMAP 
5E00
F300
6180
6180
6180
6180
6180
7300
6E00
6000
6000
6000
F000
ENDCHAR
STARTCHAR q
ENCODING 113
SWIDTH 536 0
DWIDTH 10 0
BBX 9 13 1 -4
VVECTOR 6 16
SWIDTH1 0 -1125
DWIDTH1 0 -21
BITMAP 
3D00
6700
C300
C300
C300
C300
C300
6700
3B00
0300
0300
0300
0780
ENDCHAR
STARTCHAR r
ENCODING 114
SWIDTH 321 0
DWIDTH 6 0
BBX 6 9 0 0
VVECTOR 3 16
SWIDTH1 0 -1125
DWIDTH1 0 -21
BITMAP 
6C
FC
64
60
60
60
60
60
F0
ENDCHAR
STARTCHAR s
ENCODING 115
SWIDTH 375 0
DWIDTH 7 0
BBX 6 9 1 0
VVECTOR 5 16
SWIDTH1 0 -1125
DWIDTH1 0 -21
BITMAP 
74
CC
C4
60
30
18
8C
CC
F8
ENDCHAR
STARTCHAR t
ENCODING 116
SWIDTH 268 0
DWIDTH 5 0
BBX 5 12 0 0
VVECTOR 3 16
SWIDTH1 0 -1125
DWIDTH1 0 -21
BITMAP 
20
20
60
F8
60
60
60
60
60
60
68
30
ENDCHAR
STARTCHAR u
ENCODING 117
SWIDTH 482 0
DWIDTH 9 0
BBX 9 9 0 0
VVECTOR 5 16
SWIDTH1 0 -1125
DWIDTH1 0 -21
BITMAP 
E700
6300
6300
6300
6300
6300
6300
6700
3B80
ENDCHAR
STARTCHAR v
ENCODING 118
SWIDTH 536 0
DWIDTH 10 0
BBX 9 9 0 0
VVECTOR 4 16
SWIDTH1 0 -1125
DWIDTH1 0 -21
BITMAP 
F380
6100
6100
3200
3200
1C00
1C00
0800
0800
ENDCHAR
STARTCHAR w
ENCODING 119
SWIDTH 750 0
DWIDTH 14 0
BBX 13 9 0 0
VVECTOR 6 16
SWIDTH1 0 -1125
DWIDTH1 0 -21
BITMAP 
F7B8
6310
6310
37B0
35A0
1CE0
1CE0
0840
0840
ENDCHAR
STARTCHAR x
ENCODING 120
SWIDTH 482 0
DWIDTH 9 0
BBX 8 9 0 0
VVECTOR 4 16
SWIDTH1 0 -1125
DWIDTH1 0 -21
BITMAP 
F7
62
34
38
18
1C
2C
46
EF
ENDCHAR
STARTCHAR y
ENCODING 121
SWIDTH 536 0
DWIDTH 10 0
BBX 9 13 0 -4
VVECTOR 4 16
SWIDTH1 0 -1125
DWIDTH1 0 -21
BITMAP 
F380
6100
6100
3200
3200
1C00
1C00
0800
0800
1800
5000
F000
6000
ENDCHAR
STARTCHAR z
ENCODING 122
SWIDTH 429 0
DWIDTH 8 0
BBX 7 9 1 0
VVECTOR 5 16
SWIDTH1 0 -1125
DWIDTH1 0 -21
BITMAP 
FE
86
0C
18
30
60
C0
C2
FE
ENDCHAR
STARTCHAR braceleft
ENCODING 123
SWIDTH 429 0
DWIDTH 8 0
BBX 5 17 2 -4
VVECTOR 5 16
SWIDTH1 0 -1125
DWIDTH1 0 -21
BITMAP 
38
60
60
60
60
60
60
60
C0
60
60
60
60
60
60
60
38
ENDCHAR
STARTCHAR bar
ENCODING 124
SWIDTH 214 0
DWIDTH 4 0
BBX 2 16 1 -2
VVECTOR 2 16
SWIDTH1 0 -1125
DWIDTH1 0 -21
BITMAP 
C0
C0
C0
C0
C0
C0
C0
C0
C0
C0
C0
C0
C0
C0
C0
C0
ENDCHAR
STARTCHAR braceright
ENCODING 125
SWIDTH 429 0
DWIDTH 8 0
BBX 5 17 1 -4
VVECTOR 3 16
SWIDTH1 0 -1125
DWIDTH1 0 -21
BITMAP 
E0
30
30
30
30
30
30
30
18
30
30
30
30
30
30
30
E0
ENDCHAR
STARTCHAR asciitilde
ENCODING 126
SWIDTH 429 0
DWIDTH 8 0
BBX 8 3 0 13
VVECTOR 4 16
SWIDTH1 0 -1125
DWIDTH1 0 -21
BITMAP 
31
5A
8C
ENDCHAR
STARTCHAR house
ENCODING 127
SWIDTH 696 0
DWIDTH 13 0
BBX 11 13 1 0
VVECTOR 7 16
SWIDTH1 0 -1125
DWIDTH1 0 -21
BITMAP 
0400
0A00
1100
2080
4040
8020
8020
8020
8020
8020
8020
8020
FFE0
ENDCHAR
STARTCHAR Ccedilla
ENCODING 128
SWIDTH 696 0
DWIDTH 13 0
BBX 11 17 1 -4
VVECTOR 7 16
SWIDTH1 0 -1125
DWIDTH1 0 -21
BITMAP 
0F40
38C0
6040
6020
C000
C000
C000
C000
C000
6000
6020
38C0
0F00
0600
0E00
0300
1E00
ENDCHAR
STARTCHAR udieresis
ENCODING 129
SWIDTH 482 0
DWIDTH 9 0
BBX 9 14 0 0
VVECTOR 5 16
SWIDTH1 0 -1125
DWIDTH1 0 -21
BITMAP 
6600
6600
0000
0000
0000
E700
6300
6300
6300
6300
6300
6300
6700
3B80
ENDCHAR
STARTCHAR eacute
ENCODING 130
SWIDTH 482 0
DWIDTH 9 0
BBX 7 14 1 0
VVECTOR 5 16
SWIDTH1 0 -1125
DWIDTH1 0 -21
BITMAP 
0C
18
20
00
00
38
6C
C6
FE
C0
C0
C2
66
38
ENDCHAR
STARTCHAR acircumflex
ENCODING 131
SWIDTH 482 0
DWIDTH 9 0
BBX 8 14 1 0
VVECTOR 6 16
SWIDTH1 0 -1125
DWIDTH1 0 -21
BITMAP 
10
38
44
00
00
7C
C6
C6
1E
66
C6
C6
CE
7B
ENDCHAR
STARTCHAR adieresis
ENCODING 132
SWIDTH 482 0
DWIDTH 9 0
BBX 8 13 1 0
VVECTOR 6 16
SWIDTH1 0 -1125
DWIDTH1 0 -21
BITMAP 
6C
6C
00
00
7C
C6
C6
1E
66
C6
C6
CE
7B
ENDCHAR
STARTCHAR agrave
ENCODING 133
SWIDTH 482 0
DWIDTH 9 0
BBX 8 14 1 0
VVECTOR 6 16
SWIDTH1 0 -1125
DWIDTH1 0 -21
BITMAP 
C0
60
10
00
00
7C
C6
C6
1E
66
C6
C6
CE
7B
ENDCHAR
STARTCHAR aring
ENCODING 134
SWIDTH 482 0
DWIDTH 9 0
BBX 8 14 1 0
VVECTOR 6 16
SWIDTH1 0 -1125
DWIDTH1 0 -21
BITMAP 
38
6C
6C
38
00
7C
C6
C6
1E
66
C6
C6
CE
7B
ENDCHAR
STARTCHAR ccedilla
ENCODING 135
SWIDTH 482 0
DWIDTH 9 0
BBX 7 13 1 -4
VVECTOR 5 16
SWIDTH1 0 -1125
DWIDTH1 0 -21
BITMAP 
3C
66
C6
C0
C0
C0
C2
66
3C
10
18
0C
38
ENDCHAR
STARTCHAR ecircumflex
ENCODING 136
SWIDTH 482 0
DWIDTH 9 0
BBX 7 14 1 0
VVECTOR 5 16
SWIDTH1 0 -1125
DWIDTH1 0 -21
BITMAP 
10
38
6C
00
00
38
6C
C6
FE
C0
C0
C2
66
38
ENDCHAR
STARTCHAR edieresis
ENCODING 137
SWIDTH 482 0
DWIDTH 9 0
BBX 7 14 1 0
VVECTOR 5 16
SWIDTH1 0 -1125
DWIDTH1 0 -21
BITMAP 
66
66
00
00
00
38
6C
C6
FE
C0
C0
C2
64
38
ENDCHAR
STARTCHAR egrave
ENCODING 138
SWIDTH 482 0
DWIDTH 9 0
BBX 7 14 1 0
VVECTOR 5 16
SWIDTH1 0 -1125
DWIDTH1 0 -21
BITMAP 
60
30
08
00
00
38
6C
C6
FE
C0
C0
C2
66
3C
ENDCHAR
STARTCHAR idieresis
ENCODING 139
SWIDTH 268 0
DWIDTH 5 0
BBX 5 14 0 0
VVECTOR 3 16
SWIDTH1 0 -1125
DWIDTH1 0 -21
BITMAP 
D8
D8
00
00
00
10
70
30
30
30
30
30
30
78
ENDCHAR
STARTCHAR icircumflex
ENCODING 140
SWIDTH 268 0
DWIDTH 5 0
BBX 5 14 0 0
VVECTOR 3 16
SWIDTH1 0 -1125
DWIDTH1 0 -21
BITMAP 
20
70
88
00
00
10
70
30
30
30
30
30
30
78
ENDCHAR
STARTCHAR igrave
ENCODING 141
SWIDTH 268 0
DWIDTH 5 0
BBX 4 14 0 0
VVECTOR 2 16
SWIDTH1 0 -1125
DWIDTH1 0 -21
BITMAP 
C0
60
10
00
00
20
E0
60
60
60
60
60
60
F0
ENDCHAR
STARTCHAR Adieresis
ENCODING 142
SWIDTH 643 0
DWIDTH 12 0
BBX 12 16 0 0
VVECTOR 6 16
SWIDTH1 0 -1125
DWIDTH1 0 -21
BITMAP 
1980
1980
0000
0400
0600
0E00
0B00
0B00
1300
1180
2180
3FC0
20C0
40C0
4060
E0F0
ENDCHAR
STARTCHAR Aring
ENCODING 143
SWIDTH 643 0
DWIDTH 12 0
BBX 12 16 0 0
VVECTOR 6 16
SWIDTH1 0 -1125
DWIDTH1 0 -21
BITMAP 
0E00
1B00
0E00
0400
0600
0E00
0B00
0B00
1300
1180
2180
3FC0
20C0
40C0
4060
E0F0
ENDCHAR
STARTCHAR Eacute
ENCODING 144
SWIDTH 643 0
DWIDTH 12 0
BBX 10 16 1 0
VVECTOR 6 16
SWIDTH1 0 -1125
DWIDTH1 0 -21
BITMAP 
0600
0C00
1000
FF80
6080
6000
6000
6000
6100
7F00
6100
6000
6000
6000
6040
FF80
ENDCHAR
STARTCHAR ae
ENCODING 145
SWIDTH 696 0
DWIDTH 13 0
BBX 12 9 1 0
VVECTOR 8 16
SWIDTH1 0 -1125
DWIDTH1 0 -21
BITMAP 
3DC0
C760
C630
1FF0
6600
C600
C610
CF30
79E0
ENDCHAR
STARTCHAR AE
ENCODING 146
SWIDTH 911 0
DWIDTH 17 0
BBX 16 13 0 0
VVECTOR 8 16
SWIDTH1 0 -1125
DWIDTH1 0 -21
BITMAP 
0FFE
0582
0D80
0980
0980
1984
11FC
3F84
2180
2180
6180
4181
E3FE
ENDCHAR
STARTCHAR ocircumflex
ENCODING 147
SWIDTH 536 0
DWIDTH 10 0
BBX 8 14 1 0
VVECTOR 5 16
SWIDTH1 0 -1125
DWIDTH1 0 -21
BITMAP 
10
38
44
00
00
3C
46
C3
C3
C3
C3
C3
62
3C
ENDCHAR
STARTCHAR odieresis
ENCODING 148
SWIDTH 536 0
DWIDTH 10 0
BBX 8 14 1 0
VVECTOR 5 16
SWIDTH1 0 -1125
DWIDTH1 0 -21
BITMAP 
66
66
00
00
00
3C
46
C3
C3
C3
C3
C3
62
3C
ENDCHAR
STARTCHAR ograve
ENCODING 149
SWIDTH 536 0
DWIDTH 10 0
BBX 8 14 1 0
VVECTOR 5 16
SWIDTH1 0 -1125
DWIDTH1 0 -21
BITMAP 
60
30
08
00
00
3C
46
C3
C3
C3
C3
C3
62
3C
ENDCHAR
STARTCHAR ucircumflex
ENCODING 150
SWIDTH 482 0
DWIDTH 9 0
BBX 9 14 0 0
VVECTOR 5 16
SWIDTH1 0 -1125
DWIDTH1 0 -21
BITMAP 
0800
1C00
2200
0000
0000
E700
6300
6300
6300
6300
6300
6300
6700
3B80
ENDCHAR
STARTCHAR ugrave
ENCODING 151
SWIDTH 482 0
DWIDTH 9 0
BBX 9 14 0 0
VVECTOR 5 16
SWIDTH1 0 -1125
DWIDTH1 0 -21
BITMAP 
3000
1800
0400
0000
0000
E700
6300
6300
6300
6300
6300
6300
6700
3B80
ENDCHAR
STARTCHAR ydieresis
ENCODING 152
SWIDTH 536 0
DWIDTH 10 0
BBX 9 18 0 -4
VVECTOR 4 16
SWIDTH1 0 -1125
DWIDTH1 0 -21
BITMAP 
3300
3300
0000
0000
0000
F380
6100
6100
3200
3200
1C00
1C00
0800
0800
1800
5000
F000
6000
ENDCHAR
STARTCHAR Odieresis
ENCODING 153
SWIDTH 750 0
DWIDTH 14 0
BBX 12 16 1 0
VVECTOR 7 16
SWIDTH1 0 -1125
DWIDTH1 0 -21
BITMAP 
1980
1980
0000
0F00
30C0
6060
6060
C030
C030
C030
C030
C030
6060
6060
30C0
0F00
ENDCHAR
STARTCHAR Udieresis
ENCODING 154
SWIDTH 750 0
DWIDTH 14 0
BBX 12 16 1 0
VVECTOR 7 16
SWIDTH1 0 -1125
DWIDTH1 0 -21
BITMAP 
1980
1980
0000
F070
6020
6020
6020
6020
6020
6020
6020
6020
6020
3040
38C0
0F00
ENDCHAR
STARTCHAR oslash
ENCODING 155
SWIDTH 536 0
DWIDTH 10 0
BBX 8 11 1 -1
VVECTOR 5 16
SWIDTH1 0 -1125
DWIDTH1 0 -21
BITMAP 
01
3E
46
CF
DB
D3
F3
E3
62
BC
80
ENDCHAR
STARTCHAR sterling
ENCODING 156
SWIDTH 482 0
DWIDTH 9 0
BBX 9 13 0 0
VVECTOR 5 16
SWIDTH1 0 -1125
DWIDTH1 0 -21
BITMAP 
3E00
7300
6300
6000
6000
FE00
3000
3000
3000
3000
7080
BF80
E700
ENDCHAR
STARTCHAR Oslash
ENCODING 157
SWIDTH 750 0
DWIDTH 14 0
BBX 12 13 1 0
VVECTOR 7 16
SWIDTH1 0 -1125
DWIDTH1 0 -21
BITMAP 
0F10
30F0
6060
60E0
C1B0
C330
C630
CC30
D830
7060
6060
F0C0
8F00
ENDCHAR
STARTCHAR multiply
ENCODING 158
SWIDTH 589 0
DWIDTH 11 0
BBX 7 6 2 3
VVECTOR 6 16
SWIDTH1 0 -1125
DWIDTH1 0 -21
BITMAP 
C6
6C
38
38
6C
C6
ENDCHAR
STARTCHAR florin
ENCODING 159
SWIDTH 536 0
DWIDTH 10 0
BBX 10 17 0 -3
VVECTOR 5 16
SWIDTH1 0 -1125
DWIDTH1 0 -21
BITMAP 
0180
02C0
0600
0600
0E00
3F80
0C00
0C00
1C00
1800
1800
1800
3000
3000
3000
A000
C000
ENDCHAR
STARTCHAR aacute
ENCODING 160
SWIDTH 482 0
DWIDTH 9 0
BBX 8 14 1 0
VVECTOR 6 16
SWIDTH1 0 -1125
DWIDTH1 0 -21
BITMAP 
0C
18
20
00
00
7C
C6
C6
1E
66
C6
C6
CE
7B
ENDCHAR
STARTCHAR iacute
ENCODING 161
SWIDTH 268 0
DWIDTH 5 0
BBX 4 14 0 0
VVECTOR 2 16
SWIDTH1 0 -1125
DWIDTH1 0 -21
BITMAP 
30
60
80
00
00
20
E0
60
60
60
60
60
60
F0
ENDCHAR
STARTCHAR oacute
ENCODING 162
SWIDTH 536 0
DWIDTH 10 0
BBX 8 14 1 0
VVECTOR 5 16
SWIDTH1 0 -1125
DWIDTH1 0 -21
BITMAP 
0C
18
20
00
00
3C
46
C3
C3
C3
C3
C3
62
3C
ENDCHAR
STARTCHAR uacute
ENCODING 163
SWIDTH 482 0
DWIDTH 9 0
BBX 9 14 0 0
VVECTOR 5 16
SWIDTH1 0 -1125
DWIDTH1 0 -21
BITMAP 
0600
0C00
1000
0000
0000
EF00
6300
6300
6300
6300
6300
6300
6700
3B80
ENDCHAR
STARTCHAR ntilde
ENCODING 164
SWIDTH 482 0
DWIDTH 9 0
BBX 9 14 0 0
VVECTOR 5 16
SWIDTH1 0 -1125
DWIDTH1 0 -21
BITMAP 
3100
7F00
4600
0000
0000
6E00
F300
6300
6300
6300
6300
6300
6300
F380
ENDCHAR
STARTCHAR Ntilde
ENCODING 165
SWIDTH 750 0
DWIDTH 14 0
BBX 12 16 1 0
VVECTOR 7 16
SWIDTH1 0 -1125
DWIDTH1 0 -21
BITMAP 
1880
3F80
2300
F070
7020
7820
5C20
4E20
4620
4720
43A0
41E0
40E0
40E0
4060
E020
ENDCHAR
STARTCHAR ordfeminine
ENCODING 166
SWIDTH 268 0
DWIDTH 5 0
BBX 5 8 0 5
VVECTOR 3 16
SWIDTH1 0 -1125
DWIDTH1 0 -21
BITMAP 
60
90
30
D0
90
E8
00
F8
ENDCHAR
STARTCHAR ordmasculine
ENCODING 167
SWIDTH 268 0
DWIDTH 5 0
BBX 5 8 0 5
VVECTOR 3 16
SWIDTH1 0 -1125
DWIDTH1 0 -21
BITMAP 
70
D8
88
88
D8
70
00
F8
ENDCHAR
STARTCHAR questiondown
ENCODING 168
SWIDTH 429 0
DWIDTH 8 0
BBX 6 13 1 -4
VVECTOR 4 16
SWIDTH1 0 -1125
DWIDTH1 0 -21
BITMAP 
30
30
00
00
10
10
30
60
60
CC
CC
C4
78
ENDCHAR
STARTCHAR registered
ENCODING 169
SWIDTH 750 0
DWIDTH 14 0
BBX 13 13 0 0
VVECTOR 6 16
SWIDTH1 0 -1125
DWIDTH1 0 -21
BITMAP 
0F80
3060
4010
5F90
8CC8
8CC8
8F88
8D88
8CC8
5E70
4010
3060
0F80
ENDCHAR
STARTCHAR logicalnot
ENCODING 170
SWIDTH 536 0
DWIDTH 10 0
BBX 8 3 1 4
VVECTOR 5 16
SWIDTH1 0 -1125
DWIDTH1 0 -21
BITMAP 
FF
FF
03
ENDCHAR
STARTCHAR onehalf
ENCODING 171
SWIDTH 696 0
DWIDTH 13 0
BBX 11 14 1 0
VVECTOR 7 16
SWIDTH1 0 -1125
DWIDTH1 0 -21
BITMAP 
30C0
70C0
3180
3300
3300
3600
0C00
0C00
19C0
3260
3060
60C0
C100
C3E0
ENDCHAR
STARTCHAR onequarter
ENCODING 172
SWIDTH 696 0
DWIDTH 13 0
BBX 11 14 1 0
VVECTOR 7 16
SWIDTH1 0 -1125
DWIDTH1 0 -21
BITMAP 
30C0
70C0
3180
3300
3300
3600
0C00
0C00
19C0
32C0
36C0
67E0
C0C0
C0C0
ENDCHAR
STARTCHAR exclamdown
ENCODING 173
SWIDTH 214 0
DWIDTH 4 0
BBX 2 13 1 -4
VVECTOR 2 16
SWIDTH1 0 -1125
DWIDTH1 0 -21
BITMAP 
C0
C0
00
00
C0
C0
C0
C0
C0
C0
C0
C0
C0
ENDCHAR
STARTCHAR guillemotleft
ENCODING 174
SWIDTH 482 0
DWIDTH 9 0
BBX 8 7 0 1
VVECTOR 4 16
SWIDTH1 0 -1125
DWIDTH1 0 -21
BITMAP 
11
33
66
CC
66
33
11
ENDCHAR
STARTCHAR guillemotright
ENCODING 175
SWIDTH 482 0
DWIDTH 9 0
BBX 8 7 1 1
VVECTOR 6 16
SWIDTH1 0 -1125
DWIDTH1 0 -21
BITMAP 
88
CC
66
33
66
CC
88
ENDCHAR
STARTCHAR ltshade
ENCODING 176
SWIDTH 589 0
DWIDTH 11 0
BBX 10 18 0 -2
VVECTOR 5 16
SWIDTH1 0 -1125
DWIDTH1 0 -21
BITMAP 
CCC0
CCC0
0000
0000
CCC0
CCC0
0000
0000
CCC0
CCC0
0000
0000
CCC0
CCC0
0000
0000
CCC0
CCC0
ENDCHAR
STARTCHAR shade
ENCODING 177
SWIDTH 589 0
DWIDTH 11 0
BBX 11 18 0 -2
VVECTOR 6 16
SWIDTH1 0 -1125
DWIDTH1 0 -21
BITMAP 
C300
C300
1860
1860
C300
C300
1860
1860
C300
C300
1860
1860
C300
C300
1860
1860
C300
C300
ENDCHAR
STARTCHAR dkshade
ENCODING 178
SWIDTH 589 0
DWIDTH 11 0
BBX 10 18 0 -2
VVECTOR 5 16
SWIDTH1 0 -1125
DWIDTH1 0 -21
BITMAP 
CCC0
CCC0
3300
3300
CCC0
CCC0
3300
3300
CCC0
CCC0
3300
3300
CCC0
CCC0
3300
3300
CCC0
CCC0
ENDCHAR
STARTCHAR SF110000
ENCODING 179
SWIDTH 589 0
DWIDTH 11 0
BBX 1 21 5 -5
VVECTOR 6 16
SWIDTH1 0 -1125
DWIDTH1 0 -21
BITMAP 
80
80
80
80
80
80
80
80
80
80
80
80
80
80
80
80
80
80
80
80
80
ENDCHAR
STARTCHAR SF090000
ENCODING 180
SWIDTH 589 0
DWIDTH 11 0
BBX 6 21 0 -5
VVECTOR 1 16
SWIDTH1 0 -1125
DWIDTH1 0 -21
BITMAP 
04
04
04
04
04
04
04
04
FC
04
04
04
04
04
04
04
04
04
04
04
04
ENDCHAR
STARTCHAR Aacute
ENCODING 181
SWIDTH 643 0
DWIDTH 12 0
BBX 12 16 0 0
VVECTOR 6 16
SWIDTH1 0 -1125
DWIDTH1 0 -21
BITMAP 
0300
0600
0800
0400
0600
0E00
0B00
0B00
1300
1180
2180
3FC0
20C0
40C0
4060
E0F0
ENDCHAR
STARTCHAR Acircumflex
ENCODING 182
SWIDTH 643 0
DWIDTH 12 0
BBX 12 16 0 0
VVECTOR 6 16
SWIDTH1 0 -1125
DWIDTH1 0 -21
BITMAP 
0400
0E00
1100
0400
0600
0E00
0B00
0B00
1300
1180
2180
3FC0
20C0
40C0
4060
E0F0
ENDCHAR
STARTCHAR Agrave
ENCODING 183
SWIDTH 643 0
DWIDTH 12 0
BBX 12 16 0 0
VVECTOR 6 16
SWIDTH1 0 -1125
DWIDTH1 0 -21
BITMAP 
1800
0C00
0200
0400
0600
0E00
0B00
0B00
1300
1180
2180
3FC0
20C0
40C0
4060
E0F0
ENDCHAR
STARTCHAR copyright
ENCODING 184
SWIDTH 750 0
DWIDTH 14 0
BBX 13 13 0 0
VVECTOR 6 16
SWIDTH1 0 -1125
DWIDTH1 0 -21
BITMAP 
0F80
3060
4010
4710
8CC8
9848
9808
9848
8C88
4710
4010
3060
0F80
ENDCHAR
STARTCHAR SF230000
ENCODING 185
SWIDTH 589 0
DWIDTH 11 0
BBX 7 21 0 -5
VVECTOR 2 16
SWIDTH1 0 -1125
DWIDTH1 0 -21
BITMAP 
0A
0A
0A
0A
0A
0A
0A
FA
02
FA
0A
0A
0A
0A
0A
0A
0A
0A
0A
0A
0A
ENDCHAR
STARTCHAR SF240000
ENCODING 186
SWIDTH 589 0
DWIDTH 11 0
BBX 3 21 4 -5
VVECTOR 6 16
SWIDTH1 0 -1125
DWIDTH1 0 -21
BITMAP 
A0
A0
A0
A0
A0
A0
A0
A0
A0
A0
A0
A0
A0
A0
A0
A0
A0
A0
A0
A0
A0
ENDCHAR
STARTCHAR SF250000
ENCODING 187
SWIDTH 589 0
DWIDTH 11 0
BBX 7 14 0 -5
VVECTOR 2 16
SWIDTH1 0 -1125
DWIDTH1 0 -21
BITMAP 
FE
02
FA
0A
0A
0A
0A
0A
0A
0A
0A
0A
0A
0A
ENDCHAR
STARTCHAR SF260000
ENCODING 188
SWIDTH 589 0
DWIDTH 11 0
BBX 7 10 0 6
VVECTOR 2 16
SWIDTH1 0 -1125
DWIDTH1 0 -21
BITMAP 
0A
0A
0A
0A
0A
0A
0A
FA
02
FE
ENDCHAR
STARTCHAR cent
ENCODING 189
SWIDTH 482 0
DWIDTH 9 0
BBX 7 10 1 0
VVECTOR 5 16
SWIDTH1 0 -1125
DWIDTH1 0 -21
BITMAP 
02
3C
66
CE
C8
D0
D0
E2
66
B8
ENDCHAR
STARTCHAR yen
ENCODING 190
SWIDTH 482 0
DWIDTH 9 0
BBX 9 13 0 0
VVECTOR 5 16
SWIDTH1 0 -1125
DWIDTH1 0 -21
BITMAP 
F380
C100
6100
6200
3200
3400
3400
FF00
1800
FF00
1800
1800
3C00
ENDCHAR
STARTCHAR SF030000
ENCODING 191
SWIDTH 589 0
DWIDTH 11 0
BBX 6 13 0 -5
VVECTOR 1 16
SWIDTH1 0 -1125
DWIDTH1 0 -21
BITMAP 
FC
04
04
04
04
04
04
04
04
04
04
04
04
ENDCHAR
STARTCHAR SF020000
ENCODING 192
SWIDTH 589 0
DWIDTH 11 0
BBX 6 9 5 7
VVECTOR 11 16
SWIDTH1 0 -1125
DWIDTH1 0 -21
BITMAP 
80
80
80
80
80
80
80
80
FC
ENDCHAR
STARTCHAR SF070000
ENCODING 193
SWIDTH 589 0
DWIDTH 11 0
BBX 11 9 0 7
VVECTOR 6 16
SWIDTH1 0 -1125
DWIDTH1 0 -21
BITMAP 
0400
0400
0400
0400
0400
0400
0400
0400
FFE0
ENDCHAR
STARTCHAR SF060000
ENCODING 194
SWIDTH 589 0
DWIDTH 11 0
BBX 11 13 0 -5
VVECTOR 6 16
SWIDTH1 0 -1125
DWIDTH1 0 -21
BITMAP 
FFE0
0400
0400
0400
0400
0400
0400
0400
0400
0400
0400
0400
0400
ENDCHAR
STARTCHAR SF080000
ENCODING 195
SWIDTH 589 0
DWIDTH 11 0
BBX 6 21 5 -5
VVECTOR 11 16
SWIDTH1 0 -1125
DWIDTH1 0 -21
BITMAP 
80
80
80
80
80
80
80
80
FC
80
80
80
80
80
80
80
80
80
80
80
80
ENDCHAR
STARTCHAR SF100000
ENCODING 196
SWIDTH 589 0
DWIDTH 11 0
BBX 11 1 0 7
VVECTOR 6 16
SWIDTH1 0 -1125
DWIDTH1 0 -21
BITMAP 
FFE0
ENDCHAR
STARTCHAR SF050000
ENCODING 197
SWIDTH 589 0
DWIDTH 11 0
BBX 11 21 0 -5
VVECTOR 6 16
SWIDTH1 0 -1125
DWIDTH1 0 -21
BITMAP 
0400
0400
0400
0400
0400
0400
0400
0400
FFE0
0400
0400
0400
0400
0400
0400
0400
0400
0400
0400
0400
0400
ENDCHAR
STARTCHAR atilde
ENCODING 198
SWIDTH 482 0
DWIDTH 9 0
BBX 8 14 1 0
VVECTOR 6 16
SWIDTH1 0 -1125
DWIDTH1 0 -21
BITMAP 
62
FE
8C
00
00
7C
C6
C6
1E
66
C6
C6
CE
7B
ENDCHAR
STARTCHAR Atilde
ENCODING 199
SWIDTH 643 0
DWIDTH 12 0
BBX 12 16 0 0
VVECTOR 6 16
SWIDTH1 0 -1125
DWIDTH1 0 -21
BITMAP 
1880
3F80
2300
0400
0600
0E00
0B00
0B00
1300
1180
2180
3FC0
20C0
40C0
4060
E0F0
ENDCHAR
STARTCHAR SF380000
ENCODING 200
SWIDTH 589 0
DWIDTH 11 0
BBX 7 10 4 6
VVECTOR 10 16
SWIDTH1 0 -1125
DWIDTH1 0 -21
BITMAP 
A0
A0
A0
A0
A0
A0
A0
BE
80
FE
ENDCHAR
STARTCHAR SF390000
ENCODING 201
SWIDTH 589 0
DWIDTH 11 0
BBX 7 14 4 -5
VVECTOR 10 16
SWIDTH1 0 -1125
DWIDTH1 0 -21
BITMAP 
FE
80
BE
A0
A0
A0
A0
A0
A0
A0
A0
A0
A0
A0
ENDCHAR
STARTCHAR SF400000
ENCODING 202
SWIDTH 589 0
DWIDTH 11 0
BBX 11 10 0 6
VVECTOR 6 16
SWIDTH1 0 -1125
DWIDTH1 0 -21
BITMAP 
0A00
0A00
0A00
0A00
0A00
0A00
0A00
FBE0
0000
FFE0
ENDCHAR
STARTCHAR SF410000
ENCODING 203
SWIDTH 589 0
DWIDTH 11 0
BBX 11 14 0 -5
VVECTOR 6 16
SWIDTH1 0 -1125
DWIDTH1 0 -21
BITMAP 
FFE0
0000
FBE0
0A00
0A00
0A00
0A00
0A00
0A00
0A00
0A00
0A00
0A00
0A00
ENDCHAR
STARTCHAR SF420000
ENCODING 204
SWIDTH 589 0
DWIDTH 11 0
BBX 7 21 4 -5
VVECTOR 10 16
SWIDTH1 0 -1125
DWIDTH1 0 -21
BITMAP 
A0
A0
A0
A0
A0
A0
A0
BE
80
BE
A0
A0
A0
A0
A0
A0
A0
A0
A0
A0
A0
ENDCHAR
STARTCHAR SF430000
ENCODING 205
SWIDTH 589 0
DWIDTH 11 0
BBX 11 3 0 6
VVECTOR 6 16
SWIDTH1 0 -1125
DWIDTH1 0 -21
BITMAP 
FFE0
0000
FFE0
ENDCHAR
STARTCHAR SF440000
ENCODING 206
SWIDTH 589 0
DWIDTH 11 0
BBX 11 21 0 -5
VVECTOR 6 16
SWIDTH1 0 -1125
DWIDTH1 0 -21
BITMAP 
0A00
0A00
0A00
0A00
0A00
0A00
0A00
FBE0
0000
FBE0
0A00
0A00
0A00
0A00
0A00
0A00
0A00
0A00
0A00
0A00
0A00
ENDCHAR
STARTCHAR currency
ENCODING 207
SWIDTH 482 0
DWIDTH 9 0
BBX 9 9 0 4
VVECTOR 5 16
SWIDTH1 0 -1125
DWIDTH1 0 -21
BITMAP 
9C80
FF80
6300
C180
C180
C180
6300
FF80
9C80
ENDCHAR
STARTCHAR eth
ENCODING 208
SWIDTH 536 0
DWIDTH 10 0
BBX 8 14 1 0
VVECTOR 5 16
SWIDTH1 0 -1125
DWIDTH1 0 -21
BITMAP 
60
36
18
68
0C
3E
66
C3
C3
C3
C3
C3
66
3C
ENDCHAR
STARTCHAR Eth
ENCODING 209
SWIDTH 750 0
DWIDTH 14 0
BBX 12 13 1 0
VVECTOR 7 16
SWIDTH1 0 -1125
DWIDTH1 0 -21
BITMAP 
FF00
60C0
6060
6060
6030
6030
F830
6030
6030
6060
6060
60C0
FF00
ENDCHAR
STARTCHAR Ecircumflex
ENCODING 210
SWIDTH 643 0
DWIDTH 12 0
BBX 10 16 1 0
VVECTOR 6 16
SWIDTH1 0 -1125
DWIDTH1 0 -21
BITMAP 
0800
1C00
2200
FF80
6080
6000
6000
6000
6100
7F00
6100
6000
6000
6000
6040
FF80
ENDCHAR
STARTCHAR Edieresis
ENCODING 211
SWIDTH 643 0
DWIDTH 12 0
BBX 10 16 1 0
VVECTOR 6 16
SWIDTH1 0 -1125
DWIDTH1 0 -21
BITMAP 
3300
3300
0000
FF80
6080
6000
6000
6000
6100
7F00
6100
6000
6000
6000
6040
FF80
ENDCHAR
STARTCHAR Egrave
ENCODING 212
SWIDTH 643 0
DWIDTH 12 0
BBX 10 16 1 0
VVECTOR 6 16
SWIDTH1 0 -1125
DWIDTH1 0 -21
BITMAP 
3000
1800
0400
FF80
6080
6000
6000
6000
6100
7F00
6100
6000
6000
6000
6040
FF80
ENDCHAR
STARTCHAR Euro
ENCODING 213
SWIDTH 268 0
DWIDTH 5 0
BBX 4 9 1 0
VVECTOR 4 16
SWIDTH1 0 -1125
DWIDTH1 0 -21
BITMAP 
60
E0
60
60
60
60
60
60
F0
ENDCHAR
STARTCHAR Iacute
ENCODING 214
SWIDTH 321 0
DWIDTH 6 0
BBX 4 16 1 0
VVECTOR 3 16
SWIDTH1 0 -1125
DWIDTH1 0 -21
BITMAP 
30
60
80
F0
60
60
60
60
60
60
60
60
60
60
60
F0
ENDCHAR
STARTCHAR Icircumflex
ENCODING 215
SWIDTH 321 0
DWIDTH 6 0
BBX 6 16 0 0
VVECTOR 3 16
SWIDTH1 0 -1125
DWIDTH1 0 -21
BITMAP 
30
78
84
78
30
30
30
30
30
30
30
30
30
30
30
78
ENDCHAR
STARTCHAR Idieresis
ENCODING 216
SWIDTH 321 0
DWIDTH 6 0
BBX 6 16 0 0
VVECTOR 3 16
SWIDTH1 0 -1125
DWIDTH1 0 -21
BITMAP 
CC
CC
00
78
30
30
30
30
30
30
30
30
30
30
30
78
ENDCHAR
STARTCHAR SF040000
ENCODING 217
SWIDTH 589 0
DWIDTH 11 0
BBX 6 9 0 7
VVECTOR 1 16
SWIDTH1 0 -1125
DWIDTH1 0 -21
BITMAP 
04
04
04
04
04
04
04
04
FC
ENDCHAR
STARTCHAR SF010000
ENCODING 218
SWIDTH 589 0
DWIDTH 11 0
BBX 6 13 5 -5
VVECTOR 11 16
SWIDTH1 0 -1125
DWIDTH1 0 -21
BITMAP 
FC
80
80
80
80
80
80
80
80
80
80
80
80
ENDCHAR
STARTCHAR block
ENCODING 219
SWIDTH 589 0
DWIDTH 11 0
BBX 11 21 0 -5
VVECTOR 6 16
SWIDTH1 0 -1125
DWIDTH1 0 -21
BITMAP 
FFE0
FFE0
FFE0
FFE0
FFE0
FFE0
FFE0
FFE0
FFE0
FFE0
FFE0
FFE0
FFE0
FFE0
FFE0
FFE0
FFE0
FFE0
FFE0
FFE0
FFE0
ENDCHAR
STARTCHAR dnblock
ENCODING 220
SWIDTH 589 0
DWIDTH 11 0
BBX 11 13 0 -5
VVECTOR 6 16
SWIDTH1 0 -1125
DWIDTH1 0 -21
BITMAP 
FFE0
FFE0
FFE0
FFE0
FFE0
FFE0
FFE0
FFE0
FFE0
FFE0
FFE0
FFE0
FFE0
ENDCHAR
STARTCHAR brokenbar
ENCODING 221
SWIDTH 214 0
DWIDTH 4 0
BBX 2 15 1 -1
VVECTOR 2 16
SWIDTH1 0 -1125
DWIDTH1 0 -21
BITMAP 
C0
C0
C0
C0
C0
C0
C0
00
00
00
C0
C0
C0
C0
C0
ENDCHAR
STARTCHAR Igrave
ENCODING 222
SWIDTH 321 0
DWIDTH 6 0
BBX 4 16 1 0
VVECTOR 3 16
SWIDTH1 0 -1125
DWIDTH1 0 -21
BITMAP 
C0
60
10
F0
60
60
60
60
60
60
60
60
60
60
60
F0
ENDCHAR
STARTCHAR upblock
ENCODING 223
SWIDTH 589 0
DWIDTH 11 0
BBX 11 9 0 7
VVECTOR 6 16
SWIDTH1 0 -1125
DWIDTH1 0 -21
BITMAP 
FFE0
FFE0
FFE0
FFE0
FFE0
FFE0
FFE0
FFE0
FFE0
ENDCHAR
STARTCHAR Oacute
ENCODING 224
SWIDTH 750 0
DWIDTH 14 0
BBX 12 16 1 0
VVECTOR 7 16
SWIDTH1 0 -1125
DWIDTH1 0 -21
BITMAP 
0180
0300
0400
0F00
30C0
6060
6060
C030
C030
C030
C030
C030
6060
6060
30C0
0F00
ENDCHAR
STARTCHAR germandbls
ENCODING 225
SWIDTH 536 0
DWIDTH 10 0
BBX 8 13 1 0
VVECTOR 5 16
SWIDTH1 0 -1125
DWIDTH1 0 -21
BITMAP 
1C
36
63
63
67
6E
66
63
63
63
63
6A
EC
ENDCHAR
STARTCHAR Ocircumflex
ENCODING 226
SWIDTH 750 0
DWIDTH 14 0
BBX 12 16 1 0
VVECTOR 7 16
SWIDTH1 0 -1125
DWIDTH1 0 -21
BITMAP 
0600
0F00
1080
0F00
30C0
6060
6060
C030
C030
C030
C030
C030
6060
6060
30C0
0F00
ENDCHAR
STARTCHAR Ograve
ENCODING 227
SWIDTH 750 0
DWIDTH 14 0
BBX 12 16 1 0
VVECTOR 7 16
SWIDTH1 0 -1125
DWIDTH1 0 -21
BITMAP 
1800
0C00
0200
0F00
30C0
6060
6060
C030
C030
C030
C030
C030
6060
6060
30C0
0F00
ENDCHAR
STARTCHAR otilde
ENCODING 228
SWIDTH 536 0
DWIDTH 10 0
BBX 8 14 1 0
VVECTOR 5 16
SWIDTH1 0 -1125
DWIDTH1 0 -21
BITMAP 
62
FE
8C
00
00
3C
46
C3
C3
C3
C3
C3
62
3C
ENDCHAR
STARTCHAR Otilde
ENCODING 229
SWIDTH 750 0
DWIDTH 14 0
BBX 12 16 1 0
VVECTOR 7 16
SWIDTH1 0 -1125
DWIDTH1 0 -21
BITMAP 
1880
3F80
2300
0F00
30C0
6060
6060
C030
C030
C030
C030
C030
6060
6060
30C0
0F00
ENDCHAR
STARTCHAR mu
ENCODING 230
SWIDTH 482 0
DWIDTH 9 0
BBX 9 13 0 -4
VVECTOR 5 16
SWIDTH1 0 -1125
DWIDTH1 0 -21
BITMAP 
E700
6300
6300
6300
6300
6300
6300
7780
7900
6000
6000
6000
6000
ENDCHAR
STARTCHAR thorn
ENCODING 231
SWIDTH 536 0
DWIDTH 10 0
BBX 9 18 0 -4
VVECTOR 4 16
SWIDTH1 0 -1125
DWIDTH1 0 -21
BITMAP 
2000
E000
6000
6000
6000
6E00
7300
6180
6180
6180
6180
6180
7300
6E00
6000
6000
6000
F000
ENDCHAR
STARTCHAR Thorn
ENCODING 232
SWIDTH 589 0
DWIDTH 11 0
BBX 10 14 1 0
VVECTOR 7 16
SWIDTH1 0 -1125
DWIDTH1 0 -21
BITMAP 
F000
6000
6000
6000
7F00
6180
60C0
60C0
60C0
6180
7F00
6000
6000
F000
ENDCHAR
STARTCHAR Uacute
ENCODING 233
SWIDTH 750 0
DWIDTH 14 0
BBX 12 16 1 0
VVECTOR 7 16
SWIDTH1 0 -1125
DWIDTH1 0 -21
BITMAP 
0180
0300
0400
F070
6020
6020
6020
6020
6020
6020
6020
6020
6020
3040
38C0
0F00
ENDCHAR
STARTCHAR Ucircumflex
ENCODING 234
SWIDTH 750 0
DWIDTH 14 0
BBX 12 16 1 0
VVECTOR 7 16
SWIDTH1 0 -1125
DWIDTH1 0 -21
BITMAP 
0200
0700
0D80
F070
6020
6020
6020
6020
6020
6020
6020
6020
6020
3040
38C0
0F00
ENDCHAR
STARTCHAR Ugrave
ENCODING 235
SWIDTH 750 0
DWIDTH 14 0
BBX 12 16 1 0
VVECTOR 7 16
SWIDTH1 0 -1125
DWIDTH1 0 -21
BITMAP 
1800
0C00
0200
F070
6020
6020
6020
6020
6020
6020
6020
6020
6020
3040
38C0
0F00
ENDCHAR
STARTCHAR yacute
ENCODING 236
SWIDTH 536 0
DWIDTH 10 0
BBX 9 18 0 -4
VVECTOR 4 16
SWIDTH1 0 -1125
DWIDTH1 0 -21
BITMAP 
0300
0600
0800
0000
0000
F380
6100
6100
3200
3200
1C00
1C00
0800
0800
1800
1000
F000
6000
ENDCHAR
STARTCHAR Yacute
ENCODING 237
SWIDTH 643 0
DWIDTH 12 0
BBX 12 16 0 0
VVECTOR 6 16
SWIDTH1 0 -1125
DWIDTH1 0 -21
BITMAP 
0180
0300
0400
F070
6020
3040
3040
1880
0D00
0D00
0600
0600
0600
0600
0600
0F00
ENDCHAR
STARTCHAR macron
ENCODING 238
SWIDTH 482 0
DWIDTH 9 0
BBX 9 1 0 13
VVECTOR 5 16
SWIDTH1 0 -1125
DWIDTH1 0 -21
BITMAP 
FF80
ENDCHAR
STARTCHAR acute
ENCODING 239
SWIDTH 321 0
DWIDTH 6 0
BBX 4 3 1 11
VVECTOR 3 16
SWIDTH1 0 -1125
DWIDTH1 0 -21
BITMAP 
30
60
80
ENDCHAR
STARTCHAR uni00AD
ENCODING 240
SWIDTH 321 0
DWIDTH 6 0
BBX 4 2 1 5
VVECTOR 3 16
SWIDTH1 0 -1125
DWIDTH1 0 -21
BITMAP 
F0
F0
ENDCHAR
STARTCHAR plusminus
ENCODING 241
SWIDTH 536 0
DWIDTH 10 0
BBX 8 11 1 0
VVECTOR 5 16
SWIDTH1 0 -1125
DWIDTH1 0 -21
BITMAP 
18
18
18
FF
FF
18
18
18
00
FF
FF
ENDCHAR
STARTCHAR underscoredbl
ENCODING 242
SWIDTH 536 0
DWIDTH 10 0
BBX 10 4 0 -5
VVECTOR 5 16
SWIDTH1 0 -1125
DWIDTH1 0 -21
BITMAP 
FFC0
0000
FFC0
FFC0
ENDCHAR
STARTCHAR threequarters
ENCODING 243
SWIDTH 696 0
DWIDTH 13 0
BBX 11 14 1 0
VVECTOR 7 16
SWIDTH1 0 -1125
DWIDTH1 0 -21
BITMAP 
E0C0
30C0
6180
3300
3300
E600
0C00
0C00
19C0
32C0
36C0
67E0
C0C0
C0C0
ENDCHAR
STARTCHAR paragraph
ENCODING 244
SWIDTH 482 0
DWIDTH 9 0
BBX 8 16 1 -3
VVECTOR 6 16
SWIDTH1 0 -1125
DWIDTH1 0 -21
BITMAP 
3F
72
F2
F2
F2
F2
72
12
12
12
12
12
12
12
12
12
ENDCHAR
STARTCHAR section
ENCODING 245
SWIDTH 482 0
DWIDTH 9 0
BBX 7 16 1 -2
VVECTOR 5 16
SWIDTH1 0 -1125
DWIDTH1 0 -21
BITMAP 
3C
66
66
60
30
78
CC
CE
E6
66
3C
18
0C
CC
CC
78
ENDCHAR
STARTCHAR divide
ENCODING 246
SWIDTH 589 0
DWIDTH 11 0
BBX 8 8 1 2
VVECTOR 5 16
SWIDTH1 0 -1125
DWIDTH1 0 -21
BITMAP 
18
18
00
FF
FF
00
18
18
ENDCHAR
STARTCHAR cedilla
ENCODING 247
SWIDTH 321 0
DWIDTH 6 0
BBX 4 4 1 -4
VVECTOR 3 16
SWIDTH1 0 -1125
DWIDTH1 0 -21
BITMAP 
40
E0
30
E0
ENDCHAR
STARTCHAR degree
ENCODING 248
SWIDTH 268 0
DWIDTH 5 0
BBX 5 5 0 9
VVECTOR 3 16
SWIDTH1 0 -1125
DWIDTH1 0 -21
BITMAP 
70
D8
88
D8
70
ENDCHAR
STARTCHAR dieresis
ENCODING 249
SWIDTH 321 0
DWIDTH 6 0
BBX 6 2 0 12
VVECTOR 3 16
SWIDTH1 0 -1125
DWIDTH1 0 -21
BITMAP 
CC
CC
ENDCHAR
STARTCHAR periodcentered
ENCODING 250
SWIDTH 214 0
DWIDTH 4 0
BBX 2 2 1 6
VVECTOR 2 16
SWIDTH1 0 -1125
DWIDTH1 0 -21
BITMAP 
C0
C0
ENDCHAR
STARTCHAR uni00B9
ENCODING 251
SWIDTH 268 0
DWIDTH 5 0
BBX 3 6 1 8
VVECTOR 3 16
SWIDTH1 0 -1125
DWIDTH1 0 -21
BITMAP 
60
E0
60
60
60
60
ENDCHAR
STARTCHAR uni00B3
ENCODING 252
SWIDTH 268 0
DWIDTH 5 0
BBX 5 6 0 8
VVECTOR 3 16
SWIDTH1 0 -1125
DWIDTH1 0 -21
BITMAP 
70
98
30
18
D8
70
ENDCHAR
STARTCHAR uni00B2
ENCODING 253
SWIDTH 268 0
DWIDTH 5 0
BBX 5 6 0 8
VVECTOR 3 16
SWIDTH1 0 -1125
DWIDTH1 0 -21
BITMAP 
70
98
18
30
60
F8
ENDCHAR
STARTCHAR filledbox
ENCODING 254
SWIDTH 696 0
DWIDTH 13 0
BBX 13 13 0 0
VVECTOR 7 16
SWIDTH1 0 -1125
DWIDTH1 0 -21
BITMAP 
FFF8
FFF8
FFF8
FFF8
FFF8
FFF8
FFF8
FFF8
FFF8
FFF8
FFF8
FFF8
FFF8
ENDCHAR
STARTCHAR uni00A0
ENCODING 255
SWIDTH 214 0
DWIDTH 4 0
BBX 0 0 4 16
VVECTOR 6 16
SWIDTH1 0 -1125
DWIDTH1 0 -21
BITMAP 
ENDCHAR
STARTCHAR peseta
ENCODING 256
SWIDTH 1071 0
DWIDTH 20 0
BBX 18 13 1 0
VVECTOR 10 16
SWIDTH1 0 -1125
DWIDTH1 0 -21
BITMAP 
FE0000
630000
618000
618000
61A000
632000
7EF1C0
606240
606300
606180
6060C0
606A40
F03380
ENDCHAR
STARTCHAR revlogicalnot
ENCODING 257
SWIDTH 589 0
DWIDTH 11 0
BBX 9 7 1 0
VVECTOR 6 16
SWIDTH1 0 -1125
DWIDTH1 0 -21
BITMAP 
FF80
FF80
C000
C000
C000
C000
C000
ENDCHAR
STARTCHAR SF190000
ENCODING 258
SWIDTH 589 0
DWIDTH 11 0
BBX 6 21 0 -5
VVECTOR 1 16
SWIDTH1 0 -1125
DWIDTH1 0 -21
BITMAP 
04
04
04
04
04
04
04
FC
04
FC
04
04
04
04
04
04
04
04
04
04
04
ENDCHAR
STARTCHAR SF200000
ENCODING 259
SWIDTH 589 0
DWIDTH 11 0
BBX 7 21 0 -5
VVECTOR 2 16
SWIDTH1 0 -1125
DWIDTH1 0 -21
BITMAP 
0A
0A
0A
0A
0A
0A
0A
0A
FA
0A
0A
0A
0A
0A
0A
0A
0A
0A
0A
0A
0A
ENDCHAR
STARTCHAR SF210000
ENCODING 260
SWIDTH 589 0
DWIDTH 11 0
BBX 7 13 0 -5
VVECTOR 2 16
SWIDTH1 0 -1125
DWIDTH1 0 -21
BITMAP 
FE
0A
0A
0A
0A
0A
0A
0A
0A
0A
0A
0A
0A
ENDCHAR
STARTCHAR SF220000
ENCODING 261
SWIDTH 589 0
DWIDTH 11 0
BBX 6 14 0 -5
VVECTOR 1 16
SWIDTH1 0 -1125
DWIDTH1 0 -21
BITMAP 
FC
04
FC
04
04
04
04
04
04
04
04
04
04
04
ENDCHAR
STARTCHAR SF270000
ENCODING 262
SWIDTH 589 0
DWIDTH 11 0
BBX 7 9 0 7
VVECTOR 2 16
SWIDTH1 0 -1125
DWIDTH1 0 -21
BITMAP 
0A
0A
0A
0A
0A
0A
0A
0A
FE
ENDCHAR
STARTCHAR SF280000
ENCODING 263
SWIDTH 589 0
DWIDTH 11 0
BBX 6 10 0 6
VVECTOR 1 16
SWIDTH1 0 -1125
DWIDTH1 0 -21
BITMAP 
04
04
04
04
04
04
04
FC
04
FC
ENDCHAR
STARTCHAR SF360000
ENCODING 264
SWIDTH 589 0
DWIDTH 11 0
BBX 6 21 5 -5
VVECTOR 11 16
SWIDTH1 0 -1125
DWIDTH1 0 -21
BITMAP 
80
80
80
80
80
80
80
FC
80
FC
80
80
80
80
80
80
80
80
80
80
80
ENDCHAR
STARTCHAR SF370000
ENCODING 265
SWIDTH 589 0
DWIDTH 11 0
BBX 7 21 4 -5
VVECTOR 10 16
SWIDTH1 0 -1125
DWIDTH1 0 -21
BITMAP 
A0
A0
A0
A0
A0
A0
A0
A0
BE
A0
A0
A0
A0
A0
A0
A0
A0
A0
A0
A0
A0
ENDCHAR
STARTCHAR SF450000
ENCODING 266
SWIDTH 589 0
DWIDTH 11 0
BBX 11 10 0 6
VVECTOR 6 16
SWIDTH1 0 -1125
DWIDTH1 0 -21
BITMAP 
0400
0400
0400
0400
0400
0400
0400
FFE0
0000
FFE0
ENDCHAR
STARTCHAR SF460000
ENCODING 267
SWIDTH 589 0
DWIDTH 11 0
BBX 11 9 0 7
VVECTOR 6 16
SWIDTH1 0 -1125
DWIDTH1 0 -21
BITMAP 
0A00
0A00
0A00
0A00
0A00
0A00
0A00
0A00
FFE0
ENDCHAR
STARTCHAR SF470000
ENCODING 268
SWIDTH 589 0
DWIDTH 11 0
BBX 11 14 0 -5
VVECTOR 6 16
SWIDTH1 0 -1125
DWIDTH1 0 -21
BITMAP 
FFE0
0000
FFE0
0400
0400
0400
0400
0400
0400
0400
0400
0400
0400
0400
ENDCHAR
STARTCHAR SF480000
ENCODING 269
SWIDTH 589 0
DWIDTH 11 0
BBX 11 13 0 -5
VVECTOR 6 16
SWIDTH1 0 -1125
DWIDTH1 0 -21
BITMAP 
FFE0
0A00
0A00
0A00
0A00
0A00
0A00
0A00
0A00
0A00
0A00
0A00
0A00
ENDCHAR
STARTCHAR SF490000
ENCODING 270
SWIDTH 589 0
DWIDTH 11 0
BBX 7 9 4 7
VVECTOR 10 16
SWIDTH1 0 -1125
DWIDTH1 0 -21
BITMAP 
A0
A0
A0
A0
A0
A0
A0
A0
FE
ENDCHAR
STARTCHAR SF500000
ENCODING 271
SWIDTH 589 0
DWIDTH 11 0
BBX 6 10 5 6
VVECTOR 11 16
SWIDTH1 0 -1125
DWIDTH1 0 -21
BITMAP 
80
80
80
80
80
80
80
FC
80
FC
ENDCHAR
STARTCHAR SF510000
ENCODING 272
SWIDTH 589 0
DWIDTH 11 0
BBX 6 14 5 -5
VVECTOR 11 16
SWIDTH1 0 -1125
DWIDTH1 0 -21
BITMAP 
FC
80
FC
80
80
80
80
80
80
80
80
80
80
80
ENDCHAR
STARTCHAR SF520000
ENCODING 273
SWIDTH 589 0
DWIDTH 11 0
BBX 7 13 4 -5
VVECTOR 10 16
SWIDTH1 0 -1125
DWIDTH1 0 -21
BITMAP 
FE
A0
A0
A0
A0
A0
A0
A0
A0
A0
A0
A0
A0
ENDCHAR
STARTCHAR SF530000
ENCODING 274
SWIDTH 589 0
DWIDTH 11 0
BBX 11 21 0 -5
VVECTOR 6 16
SWIDTH1 0 -1125
DWIDTH1 0 -21
BITMAP 
0A00
0A00
0A00
0A00
0A00
0A00
0A00
0A00
FFE0
0A00
0A00
0A00
0A00
0A00
0A00
0A00
0A00
0A00
0A00
0A00
0A00
ENDCHAR
STARTCHAR SF540000
ENCODING 275
SWIDTH 589 0
DWIDTH 11 0
BBX 11 21 0 -5
VVECTOR 6 16
SWIDTH1 0 -1125
DWIDTH1 0 -21
BITMAP 
0400
0400
0400
0400
0400
0400
0400
FFE0
0400
FFE0
0400
0400
0400
0400
0400
0400
0400
0400
0400
0400
0400
ENDCHAR
STARTCHAR lfblock
ENCODING 276
SWIDTH 589 0
DWIDTH 11 0
BBX 6 21 0 -5
VVECTOR 1 16
SWIDTH1 0 -1125
DWIDTH1 0 -21
BITMAP 
FC
FC
FC
FC
FC
FC
FC
FC
FC
FC
FC
FC
FC
FC
FC
FC
FC
FC
FC
FC
FC
ENDCHAR
STARTCHAR rtblock
ENCODING 277
SWIDTH 589 0
DWIDTH 11 0
BBX 6 21 5 -5
VVECTOR 11 16
SWIDTH1 0 -1125
DWIDTH1 0 -21
BITMAP 
FC
FC
FC
FC
FC
FC
FC
FC
FC
FC
FC
FC
FC
FC
FC
FC
FC
FC
FC
FC
FC
ENDCHAR
STARTCHAR alpha
ENCODING 278
SWIDTH 589 0
DWIDTH 11 0
BBX 9 9 1 0
VVECTOR 6 16
SWIDTH1 0 -1125
DWIDTH1 0 -21
BITMAP 
3B00
6F00
C700
C600
C200
C600
C600
6F80
3900
ENDCHAR
STARTCHAR Gamma
ENCODING 279
SWIDTH 589 0
DWIDTH 11 0
BBX 9 13 1 0
VVECTOR 6 16
SWIDTH1 0 -1125
DWIDTH1 0 -21
BITMAP 
FF80
6180
6080
6080
6000
6000
6000
6000
6000
6000
6000
6000
F800
ENDCHAR
STARTCHAR pi
ENCODING 280
SWIDTH 589 0
DWIDTH 11 0
BBX 10 9 0 0
VVECTOR 5 16
SWIDTH1 0 -1125
DWIDTH1 0 -21
BITMAP 
3FC0
7FC0
9300
1300
1300
1300
3300
63C0
6180
ENDCHAR
STARTCHAR Sigma
ENCODING 281
SWIDTH 589 0
DWIDTH 11 0
BBX 10 13 0 0
VVECTOR 5 16
SWIDTH1 0 -1125
DWIDTH1 0 -21
BITMAP 
FF80
6180
7080
3800
1800
1C00
0C00
0800
1800
3040
20C0
7F80
FF80
ENDCHAR
STARTCHAR sigma
ENCODING 282
SWIDTH 536 0
DWIDTH 10 0
BBX 9 9 1 0
VVECTOR 6 16
SWIDTH1 0 -1125
DWIDTH1 0 -21
BITMAP 
3F80
6780
C200
C300
C300
C300
C300
6600
3C00
ENDCHAR
STARTCHAR tau
ENCODING 283
SWIDTH 482 0
DWIDTH 9 0
BBX 8 9 1 0
VVECTOR 6 16
SWIDTH1 0 -1125
DWIDTH1 0 -21
BITMAP 
7F
7F
88
18
18
18
18
1E
0C
ENDCHAR
STARTCHAR Phi
ENCODING 284
SWIDTH 750 0
DWIDTH 14 0
BBX 14 13 0 0
VVECTOR 7 16
SWIDTH1 0 -1125
DWIDTH1 0 -21
BITMAP 
0FC0
0300
1FE0
7338
6318
C30C
C30C
C30C
6318
7338
1FE0
0300
0FC0
ENDCHAR
STARTCHAR Theta
ENCODING 285
SWIDTH 750 0
DWIDTH 14 0
BBX 12 13 1 0
VVECTOR 7 16
SWIDTH1 0 -1125
DWIDTH1 0 -21
BITMAP 
0F00
30C0
6060
6060
C930
CF30
CF30
C930
C030
6060
6060
30C0
0F00
ENDCHAR
STARTCHAR uni03A9
ENCODING 286
SWIDTH 750 0
DWIDTH 14 0
BBX 14 13 0 0
VVECTOR 7 16
SWIDTH1 0 -1125
DWIDTH1 0 -21
BITMAP 
0780
1860
3030
3030
6018
6018
6018
6018
3030
1860
8CC4
FCFC
FCFC
ENDCHAR
STARTCHAR delta
ENCODING 287
SWIDTH 536 0
DWIDTH 10 0
BBX 8 13 1 0
VVECTOR 5 16
SWIDTH1 0 -1125
DWIDTH1 0 -21
BITMAP 
78
8C
C0
70
3C
66
C3
C3
C3
C3
C3
66
3C
ENDCHAR
STARTCHAR infinity
ENCODING 288
SWIDTH 696 0
DWIDTH 13 0
BBX 13 5 0 4
VVECTOR 7 16
SWIDTH1 0 -1125
DWIDTH1 0 -21
BITMAP 
78F0
CD98
8708
CD98
78F0
ENDCHAR
STARTCHAR phi1
ENCODING 289
SWIDTH 589 0
DWIDTH 11 0
BBX 9 16 1 -4
VVECTOR 6 16
SWIDTH1 0 -1125
DWIDTH1 0 -21
BITMAP 
0800
0800
0800
3E00
6B00
C980
C980
C980
C980
C980
6B00
3E00
0800
0800
0800
0800
ENDCHAR
STARTCHAR epsilon
ENCODING 290
SWIDTH 375 0
DWIDTH 7 0
BBX 6 9 1 0
VVECTOR 5 16
SWIDTH1 0 -1125
DWIDTH1 0 -21
BITMAP 
78
EC
C0
C0
78
C0
C4
CC
78
ENDCHAR
STARTCHAR intersection
ENCODING 291
SWIDTH 696 0
DWIDTH 13 0
BBX 10 12 2 0
VVECTOR 8 16
SWIDTH1 0 -1125
DWIDTH1 0 -21
BITMAP 
1E00
7F80
6180
C0C0
C0C0
C0C0
C0C0
C0C0
C0C0
C0C0
C0C0
C0C0
ENDCHAR
STARTCHAR equivalence
ENCODING 292
SWIDTH 589 0
DWIDTH 11 0
BBX 7 8 2 3
VVECTOR 6 16
SWIDTH1 0 -1125
DWIDTH1 0 -21
BITMAP 
FE
FE
00
FE
FE
00
FE
FE
ENDCHAR
STARTCHAR greaterequal
ENCODING 293
SWIDTH 589 0
DWIDTH 11 0
BBX 9 12 1 0
VVECTOR 6 16
SWIDTH1 0 -1125
DWIDTH1 0 -21
BITMAP 
C000
F000
3C00
0F00
0380
0F00
3C00
F000
C000
0000
FF80
FF80
ENDCHAR
STARTCHAR lessequal
ENCODING 294
SWIDTH 589 0
DWIDTH 11 0
BBX 9 12 1 0
VVECTOR 6 16
SWIDTH1 0 -1125
DWIDTH1 0 -21
BITMAP 
0180
0780
1E00
7800
E000
7800
1E00
0780
0180
0000
FF80
FF80
ENDCHAR
STARTCHAR integraltp
ENCODING 295
SWIDTH 696 0
DWIDTH 13 0
BBX 6 20 6 -4
VVECTOR 12 16
SWIDTH1 0 -1125
DWIDTH1 0 -21
BITMAP 
38
5C
CC
C0
C0
C0
C0
C0
C0
C0
C0
C0
C0
C0
C0
C0
C0
C0
C0
C0
ENDCHAR
STARTCHAR integralbt
ENCODING 296
SWIDTH 696 0
DWIDTH 13 0
BBX 6 20 2 -4
VVECTOR 4 16
SWIDTH1 0 -1125
DWIDTH1 0 -21
BITMAP 
0C
0C
0C
0C
0C
0C
0C
0C
0C
0C
0C
0C
0C
0C
0C
0C
0C
CC
E8
70
ENDCHAR
STARTCHAR approxequal
ENCODING 297
SWIDTH 536 0
DWIDTH 10 0
BBX 8 7 1 3
VVECTOR 5 16
SWIDTH1 0 -1125
DWIDTH1 0 -21
BITMAP 
71
FF
8E
00
71
FF
8E
ENDCHAR
STARTCHAR uni2219
ENCODING 298
SWIDTH 589 0
DWIDTH 11 0
BBX 2 2 4 5
VVECTOR 5 16
SWIDTH1 0 -1125
DWIDTH1 0 -21
BITMAP 
C0
C0
ENDCHAR
STARTCHAR radical
ENCODING 299
SWIDTH 696 0
DWIDTH 13 0
BBX 13 15 0 0
VVECTOR 7 16
SWIDTH1 0 -1125
DWIDTH1 0 -21
BITMAP 
0078
0078
0060
00C0
00C0
00C0
0180
0180
F180
F300
1B00
1B00
0E00
0E00
0400
ENDCHAR
STARTCHAR uni207F
ENCODING 300
SWIDTH 321 0
DWIDTH 6 0
BBX 6 5 0 5
VVECTOR 3 16
SWIDTH1 0 -1125
DWIDTH1 0 -21
BITMAP 
D8
68
48
48
DC
ENDCHAR
STARTCHAR uni02C9
ENCODING 301
SWIDTH 321 0
DWIDTH 6 0
BBX 6 2 0 14
VVECTOR 3 16
SWIDTH1 0 -1125
DWIDTH1 0 -21
BITMAP 
FC
FC
ENDCHAR
STARTCHAR breve
ENCODING 302
SWIDTH 429 0
DWIDTH 8 0
BBX 8 3 0 13
VVECTOR 4 16
SWIDTH1 0 -1125
DWIDTH1 0 -21
BITMAP 
C3
66
3C
ENDCHAR
STARTCHAR dotaccent
ENCODING 303
SWIDTH 321 0
DWIDTH 6 0
BBX 2 2 2 13
VVECTOR 3 16
SWIDTH1 0 -1125
DWIDTH1 0 -21
BITMAP 
C0
C0
ENDCHAR
STARTCHAR ring
ENCODING 304
SWIDTH 321 0
DWIDTH 6 0
BBX 4 4 1 12
VVECTOR 3 16
SWIDTH1 0 -1125
DWIDTH1 0 -21
BITMAP 
60
90
90
60
ENDCHAR
STARTCHAR hungarumlaut
ENCODING 305
SWIDTH 375 0
DWIDTH 7 0
BBX 7 3 0 13
VVECTOR 4 16
SWIDTH1 0 -1125
DWIDTH1 0 -21
BITMAP 
66
CC
88
ENDCHAR
STARTCHAR ogonek
ENCODING 306
SWIDTH 321 0
DWIDTH 6 0
BBX 6 4 0 -4
VVECTOR 3 16
SWIDTH1 0 -1125
DWIDTH1 0 -21
BITMAP 
C0
C0
EC
78
ENDCHAR
STARTCHAR caron
ENCODING 307
SWIDTH 321 0
DWIDTH 6 0
BBX 6 3 0 13
VVECTOR 3 16
SWIDTH1 0 -1125
DWIDTH1 0 -21
BITMAP 
CC
78
30
ENDCHAR
STARTCHAR quoteleft
ENCODING 308
SWIDTH 321 0
DWIDTH 6 0
BBX 3 6 1 10
VVECTOR 2 16
SWIDTH1 0 -1125
DWIDTH1 0 -21
BITMAP 
20
40
80
80
E0
E0
ENDCHAR
STARTCHAR quoteright
ENCODING 309
SWIDTH 321 0
DWIDTH 6 0
BBX 3 6 1 10
VVECTOR 2 16
SWIDTH1 0 -1125
DWIDTH1 0 -21
BITMAP 
E0
E0
20
20
40
80
ENDCHAR
STARTCHAR quotedblleft
ENCODING 310
SWIDTH 429 0
DWIDTH 8 0
BBX 7 6 1 10
VVECTOR 5 16
SWIDTH1 0 -1125
DWIDTH1 0 -21
BITMAP 
22
44
88
88
EE
EE
ENDCHAR
STARTCHAR quotedblright
ENCODING 311
SWIDTH 429 0
DWIDTH 8 0
BBX 7 6 1 10
VVECTOR 5 16
SWIDTH1 0 -1125
DWIDTH1 0 -21
BITMAP 
EE
EE
22
22
44
88
ENDCHAR
STARTCHAR endash
ENCODING 312
SWIDTH 536 0
DWIDTH 10 0
BBX 9 2 1 5
VVECTOR 6 16
SWIDTH1 0 -1125
DWIDTH1 0 -21
BITMAP 
FF80
FF80
ENDCHAR
STARTCHAR emdash
ENCODING 313
SWIDTH 1018 0
DWIDTH 19 0
BBX 14 2 1 5
VVECTOR 7 16
SWIDTH1 0 -1125
DWIDTH1 0 -21
BITMAP 
FFFC
FFFC
ENDCHAR
STARTCHAR uniFFE5
ENCODING 314
SWIDTH 482 0
DWIDTH 9 0
BBX 8 4 1 12
VVECTOR 6 16
SWIDTH1 0 -1125
DWIDTH1 0 -21
BITMAP 
18
3C
66
C3
ENDCHAR
STARTCHAR dotlessi
ENCODING 315
SWIDTH 536 0
DWIDTH 10 0
BBX 10 3 0 13
VVECTOR 5 16
SWIDTH1 0 -1125
DWIDTH1 0 -21
BITMAP 
78C0
FFC0
C780
ENDCHAR
STARTCHAR quotesinglbase
ENCODING 316
SWIDTH 321 0
DWIDTH 6 0
BBX 3 6 2 -4
VVECTOR 4 16
SWIDTH1 0 -1125
DWIDTH1 0 -21
BITMAP 
E0
E0
20
20
40
80
ENDCHAR
STARTCHAR quotedblbase
ENCODING 317
SWIDTH 429 0
DWIDTH 8 0
BBX 7 6 1 -4
VVECTOR 5 16
SWIDTH1 0 -1125
DWIDTH1 0 -21
BITMAP 
EE
EE
22
22
44
88
ENDCHAR
STARTCHAR ellipsis
ENCODING 318
SWIDTH 1018 0
DWIDTH 19 0
BBX 16 2 2 0
VVECTOR 11 16
SWIDTH1 0 -1125
DWIDTH1 0 -21
BITMAP 
C183
C183
ENDCHAR
STARTCHAR dagger
ENCODING 319
SWIDTH 482 0
DWIDTH 9 0
BBX 8 16 1 0
VVECTOR 6 16
SWIDTH1 0 -1125
DWIDTH1 0 -21
BITMAP 
18
18
18
FF
FF
18
18
18
18
18
18
18
18
18
18
18
ENDCHAR
STARTCHAR daggerdbl
ENCODING 320
SWIDTH 482 0
DWIDTH 9 0
BBX 8 16 1 0
VVECTOR 6 16
SWIDTH1 0 -1125
DWIDTH1 0 -21
BITMAP 
18
18
18
FF
FF
18
18
18
18
18
18
FF
FF
18
18
18
ENDCHAR
STARTCHAR circumflex
ENCODING 321
SWIDTH 321 0
DWIDTH 6 0
BBX 6 3 0 11
VVECTOR 3 16
SWIDTH1 0 -1125
DWIDTH1 0 -21
BITMAP 
30
78
CC
ENDCHAR
STARTCHAR perthousand
ENCODING 322
SWIDTH 1018 0
DWIDTH 19 0
BBX 18 13 0 0
VVECTOR 9 16
SWIDTH1 0 -1125
DWIDTH1 0 -21
BITMAP 
386000
6FC000
488000
C90000
C90000
D20000
626180
04D340
089240
099640
119640
11A680
20C300
ENDCHAR
STARTCHAR Scaron
ENCODING 323
SWIDTH 536 0
DWIDTH 10 0
BBX 8 16 1 0
VVECTOR 5 16
SWIDTH1 0 -1125
DWIDTH1 0 -21
BITMAP 
22
1C
00
3E
66
C2
C2
E0
70
3C
0E
07
83
83
C6
BC
ENDCHAR
STARTCHAR guilsinglleft
ENCODING 324
SWIDTH 321 0
DWIDTH 6 0
BBX 4 7 1 1
VVECTOR 3 16
SWIDTH1 0 -1125
DWIDTH1 0 -21
BITMAP 
10
30
60
C0
60
30
10
ENDCHAR
STARTCHAR OE
ENCODING 325
SWIDTH 911 0
DWIDTH 17 0
BBX 17 13 0 0
VVECTOR 9 16
SWIDTH1 0 -1125
DWIDTH1 0 -21
BITMAP 
0F7F80
30E080
606000
606000
C06000
C06200
C07E00
C06200
C06000
606000
606000
30E080
0F7F00
ENDCHAR
STARTCHAR tilde
ENCODING 326
SWIDTH 321 0
DWIDTH 6 0
BBX 6 2 0 12
VVECTOR 3 16
SWIDTH1 0 -1125
DWIDTH1 0 -21
BITMAP 
F4
BC
ENDCHAR
STARTCHAR trademark
ENCODING 327
SWIDTH 1018 0
DWIDTH 19 0
BBX 19 8 0 5
VVECTOR 10 16
SWIDTH1 0 -1125
DWIDTH1 0 -21
BITMAP 
FDE1E0
B4E1C0
30D2C0
30CCC0
30CCC0
30C0C0
30C0C0
79E1E0
ENDCHAR
STARTCHAR scaron
ENCODING 328
SWIDTH 375 0
DWIDTH 7 0
BBX 6 14 1 0
VVECTOR 5 16
SWIDTH1 0 -1125
DWIDTH1 0 -21
BITMAP 
44
38
10
00
00
74
CC
C4
60
30
18
8C
CC
F8
ENDCHAR
STARTCHAR guilsinglright
ENCODING 329
SWIDTH 321 0
DWIDTH 6 0
BBX 4 7 1 1
VVECTOR 3 16
SWIDTH1 0 -1125
DWIDTH1 0 -21
BITMAP 
80
C0
60
30
60
C0
80
ENDCHAR
STARTCHAR oe
ENCODING 330
SWIDTH 696 0
DWIDTH 13 0
BBX 12 9 1 0
VVECTOR 8 16
SWIDTH1 0 -1125
DWIDTH1 0 -21
BITMAP 
39C0
4F60
C630
C7F0
C600
C600
C710
65B0
38E0
ENDCHAR
STARTCHAR Ydieresis
ENCODING 331
SWIDTH 643 0
DWIDTH 12 0
BBX 12 16 0 0
VVECTOR 6 16
SWIDTH1 0 -1125
DWIDTH1 0 -21
BITMAP 
1980
1980
0000
F070
6020
3040
3040
1880
0D00
0D00
0600
0600
0600
0600
0600
0F00
ENDCHAR
STARTCHAR gbreve
ENCODING 332
SWIDTH 536 0
DWIDTH 10 0
BBX 9 17 1 -4
VVECTOR 6 16
SWIDTH1 0 -1125
DWIDTH1 0 -21
BITMAP 
6180
3300
1E00
0000
1C00
3780
6300
6300
3600
1C00
3000
6000
7F00
C380
C180
C300
7E00
ENDCHAR
STARTCHAR Gbreve
ENCODING 333
SWIDTH 750 0
DWIDTH 14 0
BBX 12 16 1 0
VVECTOR 7 16
SWIDTH1 0 -1125
DWIDTH1 0 -21
BITMAP 
1860
0CC0
0780
0F40
38C0
6040
6000
C000
C000
C000
C0F0
C060
6060
6060
38E0
0F80
ENDCHAR
STARTCHAR Idotaccent
ENCODING 334
SWIDTH 321 0
DWIDTH 6 0
BBX 4 16 1 0
VVECTOR 3 16
SWIDTH1 0 -1125
DWIDTH1 0 -21
BITMAP 
60
60
00
F0
60
60
60
60
60
60
60
60
60
60
60
F0
ENDCHAR
STARTCHAR scedilla
ENCODING 335
SWIDTH 375 0
DWIDTH 7 0
BBX 6 13 1 -4
VVECTOR 5 16
SWIDTH1 0 -1125
DWIDTH1 0 -21
BITMAP 
74
CC
C4
60
30
18
8C
CC
F8
20
30
18
70
ENDCHAR
STARTCHAR Scedilla
ENCODING 336
SWIDTH 536 0
DWIDTH 10 0
BBX 8 17 1 -4
VVECTOR 5 16
SWIDTH1 0 -1125
DWIDTH1 0 -21
BITMAP 
3A
66
C2
C2
E0
70
3C
0E
07
83
83
C6
BC
10
18
0C
38
ENDCHAR
STARTCHAR abreve
ENCODING 337
SWIDTH 482 0
DWIDTH 9 0
BBX 8 13 1 0
VVECTOR 6 16
SWIDTH1 0 -1125
DWIDTH1 0 -21
BITMAP 
C3
66
3C
00
3C
C6
C6
1E
66
C6
C6
DE
77
ENDCHAR
STARTCHAR Abreve
ENCODING 338
SWIDTH 643 0
DWIDTH 12 0
BBX 12 16 0 0
VVECTOR 6 16
SWIDTH1 0 -1125
DWIDTH1 0 -21
BITMAP 
3180
1B00
0E00
0400
0600
0E00
0B00
0B00
1300
1180
2180
3FC0
20C0
40C0
4060
E0F0
ENDCHAR
STARTCHAR aogonek
ENCODING 339
SWIDTH 482 0
DWIDTH 9 0
BBX 8 13 1 -4
VVECTOR 6 16
SWIDTH1 0 -1125
DWIDTH1 0 -21
BITMAP 
3C
C6
C6
1E
66
C6
C6
DE
77
02
06
0C
07
ENDCHAR
STARTCHAR Aogonek
ENCODING 340
SWIDTH 643 0
DWIDTH 12 0
BBX 12 17 0 -4
VVECTOR 6 16
SWIDTH1 0 -1125
DWIDTH1 0 -21
BITMAP 
0400
0600
0E00
0B00
0B00
1300
1180
2180
3FC0
20C0
40C0
4060
E0F0
0040
00C0
0180
00E0
ENDCHAR
STARTCHAR cacute
ENCODING 341
SWIDTH 482 0
DWIDTH 9 0
BBX 7 13 1 0
VVECTOR 5 16
SWIDTH1 0 -1125
DWIDTH1 0 -21
BITMAP 
06
0C
10
00
3C
66
C6
C0
C0
C0
C2
66
3C
ENDCHAR
STARTCHAR Cacute
ENCODING 342
SWIDTH 696 0
DWIDTH 13 0
BBX 11 16 1 0
VVECTOR 7 16
SWIDTH1 0 -1125
DWIDTH1 0 -21
BITMAP 
0180
0300
0400
0F40
38C0
6040
6000
C000
C000
C000
C000
C000
6000
6020
38C0
0F00
ENDCHAR
STARTCHAR ccaron
ENCODING 343
SWIDTH 482 0
DWIDTH 9 0
BBX 7 13 1 0
VVECTOR 5 16
SWIDTH1 0 -1125
DWIDTH1 0 -21
BITMAP 
44
38
10
00
3C
66
C6
C0
C0
C0
C2
66
3C
ENDCHAR
STARTCHAR Ccaron
ENCODING 344
SWIDTH 696 0
DWIDTH 13 0
BBX 11 16 1 0
VVECTOR 7 16
SWIDTH1 0 -1125
DWIDTH1 0 -21
BITMAP 
0880
0700
0200
0F40
38C0
6040
6000
C000
C000
C000
C000
C000
6000
6020
38C0
0F00
ENDCHAR
STARTCHAR dcaron
ENCODING 345
SWIDTH 536 0
DWIDTH 10 0
BBX 9 15 1 0
VVECTOR 6 16
SWIDTH1 0 -1125
DWIDTH1 0 -21
BITMAP 
8800
7100
2700
0300
0300
0300
3B00
6700
C300
C300
C300
C300
C300
6700
3D80
ENDCHAR
STARTCHAR Dcaron
ENCODING 346
SWIDTH 750 0
DWIDTH 14 0
BBX 12 16 1 0
VVECTOR 7 16
SWIDTH1 0 -1125
DWIDTH1 0 -21
BITMAP 
2200
1C00
0800
FF00
60C0
6060
6060
6030
6030
6030
6030
6030
6060
6060
60C0
FF00
ENDCHAR
STARTCHAR dcroat
ENCODING 347
SWIDTH 536 0
DWIDTH 10 0
BBX 9 14 1 0
VVECTOR 6 16
SWIDTH1 0 -1125
DWIDTH1 0 -21
BITMAP 
0100
0700
0300
0F80
0300
3B00
6700
C300
C300
C300
C300
C300
6700
3D80
ENDCHAR
STARTCHAR ecaron
ENCODING 348
SWIDTH 482 0
DWIDTH 9 0
BBX 7 13 1 0
VVECTOR 5 16
SWIDTH1 0 -1125
DWIDTH1 0 -21
BITMAP 
44
38
10
00
38
6C
C6
FE
C0
C0
C2
66
3C
ENDCHAR
STARTCHAR Ecaron
ENCODING 349
SWIDTH 643 0
DWIDTH 12 0
BBX 10 16 1 0
VVECTOR 6 16
SWIDTH1 0 -1125
DWIDTH1 0 -21
BITMAP 
2200
1C00
0800
FF80
6080
6000
6000
6000
6100
7F00
6100
6000
6000
6000
6040
FF80
ENDCHAR
STARTCHAR eogonek
ENCODING 350
SWIDTH 482 0
DWIDTH 9 0
BBX 7 13 1 -4
VVECTOR 5 16
SWIDTH1 0 -1125
DWIDTH1 0 -21
BITMAP 
38
6C
C6
FE
C0
C0
C2
66
3C
08
18
30
1C
ENDCHAR
STARTCHAR Eogonek
ENCODING 351
SWIDTH 643 0
DWIDTH 12 0
BBX 10 17 1 -4
VVECTOR 6 16
SWIDTH1 0 -1125
DWIDTH1 0 -21
BITMAP 
FF80
6080
6000
6000
6000
6100
7F00
6100
6000
6000
6000
6040
FF80
0400
0C00
1800
0E00
ENDCHAR
STARTCHAR lacute
ENCODING 352
SWIDTH 268 0
DWIDTH 5 0
BBX 4 16 1 0
VVECTOR 4 16
SWIDTH1 0 -1125
DWIDTH1 0 -21
BITMAP 
60
80
20
E0
60
60
60
60
60
60
60
60
60
60
60
F0
ENDCHAR
STARTCHAR Lacute
ENCODING 353
SWIDTH 643 0
DWIDTH 12 0
BBX 10 16 1 0
VVECTOR 6 16
SWIDTH1 0 -1125
DWIDTH1 0 -21
BITMAP 
1800
3000
4000
F000
6000
6000
6000
6000
6000
6000
6000
6000
6000
6000
6040
FF80
ENDCHAR
STARTCHAR lcaron
ENCODING 354
SWIDTH 268 0
DWIDTH 5 0
BBX 4 16 1 0
VVECTOR 4 16
SWIDTH1 0 -1125
DWIDTH1 0 -21
BITMAP 
A0
40
20
E0
60
60
60
60
60
60
60
60
60
60
60
F0
ENDCHAR
STARTCHAR Lcaron
ENCODING 355
SWIDTH 643 0
DWIDTH 12 0
BBX 10 16 1 0
VVECTOR 6 16
SWIDTH1 0 -1125
DWIDTH1 0 -21
BITMAP 
8800
7000
2000
F000
6000
6000
6000
6000
6000
6000
6000
6000
6000
6000
6040
FF80
ENDCHAR
STARTCHAR lslash
ENCODING 356
SWIDTH 268 0
DWIDTH 5 0
BBX 4 14 1 0
VVECTOR 4 16
SWIDTH1 0 -1125
DWIDTH1 0 -21
BITMAP 
20
E0
60
60
60
60
70
E0
60
60
60
60
60
F0
ENDCHAR
STARTCHAR Lslash
ENCODING 357
SWIDTH 643 0
DWIDTH 12 0
BBX 10 13 1 0
VVECTOR 6 16
SWIDTH1 0 -1125
DWIDTH1 0 -21
BITMAP 
F000
6000
6000
6000
6000
7000
E000
6000
6000
6000
6000
6040
FF80
ENDCHAR
STARTCHAR nacute
ENCODING 358
SWIDTH 482 0
DWIDTH 9 0
BBX 9 13 0 0
VVECTOR 5 16
SWIDTH1 0 -1125
DWIDTH1 0 -21
BITMAP 
0600
0C00
1000
0000
6E00
F300
6300
6300
6300
6300
6300
6300
F380
ENDCHAR
STARTCHAR Nacute
ENCODING 359
SWIDTH 750 0
DWIDTH 14 0
BBX 12 16 1 0
VVECTOR 7 16
SWIDTH1 0 -1125
DWIDTH1 0 -21
BITMAP 
0180
0300
0400
F070
7020
7820
5C20
4E20
4620
4720
43A0
41E0
40E0
40E0
4060
E020
ENDCHAR
STARTCHAR ncaron
ENCODING 360
SWIDTH 482 0
DWIDTH 9 0
BBX 9 13 0 0
VVECTOR 5 16
SWIDTH1 0 -1125
DWIDTH1 0 -21
BITMAP 
2200
1C00
0800
0000
6E00
F300
6300
6300
6300
6300
6300
6300
F380
ENDCHAR
STARTCHAR Ncaron
ENCODING 361
SWIDTH 750 0
DWIDTH 14 0
BBX 12 16 1 0
VVECTOR 7 16
SWIDTH1 0 -1125
DWIDTH1 0 -21
BITMAP 
0880
0700
0200
F070
7020
7820
5C20
4E20
4620
4720
43A0
41E0
40E0
40E0
4060
E020
ENDCHAR
STARTCHAR ohungarumlaut
ENCODING 362
SWIDTH 536 0
DWIDTH 10 0
BBX 8 13 1 0
VVECTOR 5 16
SWIDTH1 0 -1125
DWIDTH1 0 -21
BITMAP 
33
66
88
00
3C
46
C3
C3
C3
C3
C3
62
3C
ENDCHAR
STARTCHAR Ohungarumlaut
ENCODING 363
SWIDTH 750 0
DWIDTH 14 0
BBX 12 16 1 0
VVECTOR 7 16
SWIDTH1 0 -1125
DWIDTH1 0 -21
BITMAP 
0660
0CC0
1100
0F00
30C0
6060
6060
C030
C030
C030
C030
C030
6060
6060
30C0
0F00
ENDCHAR
STARTCHAR racute
ENCODING 364
SWIDTH 321 0
DWIDTH 6 0
BBX 6 13 0 0
VVECTOR 3 16
SWIDTH1 0 -1125
DWIDTH1 0 -21
BITMAP 
18
30
40
00
6C
FC
64
60
60
60
60
60
F0
ENDCHAR
STARTCHAR Racute
ENCODING 365
SWIDTH 643 0
DWIDTH 12 0
BBX 11 16 1 0
VVECTOR 7 16
SWIDTH1 0 -1125
DWIDTH1 0 -21
BITMAP 
0C00
1800
2000
FF00
6180
60C0
60C0
60C0
6180
7F00
6300
6180
6180
60C0
60C0
F060
ENDCHAR
STARTCHAR rcaron
ENCODING 366
SWIDTH 321 0
DWIDTH 6 0
BBX 6 13 0 0
VVECTOR 3 16
SWIDTH1 0 -1125
DWIDTH1 0 -21
BITMAP 
44
38
10
00
6C
FC
64
60
60
60
60
60
F0
ENDCHAR
STARTCHAR Rcaron
ENCODING 367
SWIDTH 643 0
DWIDTH 12 0
BBX 11 16 1 0
VVECTOR 7 16
SWIDTH1 0 -1125
DWIDTH1 0 -21
BITMAP 
2200
1C00
0800
FF00
6180
60C0
60C0
60C0
6180
7F00
6300
6180
6180
60C0
60C0
F060
ENDCHAR
STARTCHAR sacute
ENCODING 368
SWIDTH 375 0
DWIDTH 7 0
BBX 6 13 1 0
VVECTOR 5 16
SWIDTH1 0 -1125
DWIDTH1 0 -21
BITMAP 
18
30
40
00
74
CC
C4
60
30
18
8C
CC
F8
ENDCHAR
STARTCHAR Sacute
ENCODING 369
SWIDTH 536 0
DWIDTH 10 0
BBX 8 16 1 0
VVECTOR 5 16
SWIDTH1 0 -1125
DWIDTH1 0 -21
BITMAP 
06
0C
10
3A
66
C2
C2
E0
70
3C
0E
07
83
83
C6
BC
ENDCHAR
STARTCHAR tcaron
ENCODING 370
SWIDTH 268 0
DWIDTH 5 0
BBX 5 16 0 0
VVECTOR 3 16
SWIDTH1 0 -1125
DWIDTH1 0 -21
BITMAP 
88
70
20
00
20
20
60
F8
60
60
60
60
60
60
68
30
ENDCHAR
STARTCHAR Tcaron
ENCODING 371
SWIDTH 643 0
DWIDTH 12 0
BBX 10 16 1 0
VVECTOR 6 16
SWIDTH1 0 -1125
DWIDTH1 0 -21
BITMAP 
2100
1E00
0C00
FFC0
8C40
0C00
0C00
0C00
0C00
0C00
0C00
0C00
0C00
0C00
0C00
1E00
ENDCHAR
STARTCHAR uni0163
ENCODING 372
SWIDTH 268 0
DWIDTH 5 0
BBX 5 16 0 -4
VVECTOR 3 16
SWIDTH1 0 -1125
DWIDTH1 0 -21
BITMAP 
20
20
60
F8
60
60
60
60
60
60
68
30
20
30
18
70
ENDCHAR
STARTCHAR uni0162
ENCODING 373
SWIDTH 643 0
DWIDTH 12 0
BBX 10 17 1 -4
VVECTOR 6 16
SWIDTH1 0 -1125
DWIDTH1 0 -21
BITMAP 
FFC0
8C40
0C00
0C00
0C00
0C00
0C00
0C00
0C00
0C00
0C00
0C00
1E00
0400
0600
0300
0E00
ENDCHAR
STARTCHAR uhungarumlaut
ENCODING 374
SWIDTH 482 0
DWIDTH 9 0
BBX 9 13 0 0
VVECTOR 5 16
SWIDTH1 0 -1125
DWIDTH1 0 -21
BITMAP 
3300
6600
8800
0000
E700
6300
6300
6300
6300
6300
6300
6700
3B80
ENDCHAR
STARTCHAR Uhungarumlaut
ENCODING 375
SWIDTH 750 0
DWIDTH 14 0
BBX 12 16 1 0
VVECTOR 7 16
SWIDTH1 0 -1125
DWIDTH1 0 -21
BITMAP 
0C60
18C0
2100
F070
6020
6020
6020
6020
6020
6020
6020
6020
6020
3040
38C0
0F00
ENDCHAR
STARTCHAR uring
ENCODING 376
SWIDTH 482 0
DWIDTH 9 0
BBX 9 14 0 0
VVECTOR 5 16
SWIDTH1 0 -1125
DWIDTH1 0 -21
BITMAP 
1C00
3600
3600
1C00
0000
E700
6300
6300
6300
6300
6300
6300
6700
3B80
ENDCHAR
STARTCHAR Uring
ENCODING 377
SWIDTH 750 0
DWIDTH 14 0
BBX 12 16 1 0
VVECTOR 7 16
SWIDTH1 0 -1125
DWIDTH1 0 -21
BITMAP 
0700
0D80
0700
F070
6020
6020
6020
6020
6020
6020
6020
6020
6020
3040
38C0
0F00
ENDCHAR
STARTCHAR zacute
ENCODING 378
SWIDTH 429 0
DWIDTH 8 0
BBX 7 13 1 0
VVECTOR 5 16
SWIDTH1 0 -1125
DWIDTH1 0 -21
BITMAP 
0C
18
20
00
FE
86
0C
18
30
60
C0
C2
FE
ENDCHAR
STARTCHAR Zacute
ENCODING 379
SWIDTH 643 0
DWIDTH 12 0
BBX 11 16 1 0
VVECTOR 7 16
SWIDTH1 0 -1125
DWIDTH1 0 -21
BITMAP 
0300
0600
0800
7FC0
4180
0180
0300
0700
0600
0C00
1C00
1800
3000
7000
6020
FFC0
ENDCHAR
STARTCHAR zcaron
ENCODING 380
SWIDTH 429 0
DWIDTH 8 0
BBX 7 13 1 0
VVECTOR 5 16
SWIDTH1 0 -1125
DWIDTH1 0 -21
BITMAP 
44
38
10
00
FE
86
0C
18
30
60
C0
C2
FE
ENDCHAR
STARTCHAR Zcaron
ENCODING 381
SWIDTH 643 0
DWIDTH 12 0
BBX 11 16 1 0
VVECTOR 7 16
SWIDTH1 0 -1125
DWIDTH1 0 -21
BITMAP 
1100
0E00
0400
7FC0
4180
0180
0300
0700
0600
0C00
1C00
1800
3000
7000
6020
FFC0
ENDCHAR
STARTCHAR zdotaccent
ENCODING 382
SWIDTH 429 0
DWIDTH 8 0
BBX 7 12 1 0
VVECTOR 5 16
SWIDTH1 0 -1125
DWIDTH1 0 -21
BITMAP 
30
30
00
FE
86
0C
18
30
60
C0
C2
FE
ENDCHAR
ENDFONT
